<svg xmlns="http://www.w3.org/2000/svg" version="1.1" xmlns:xlink="http://www.w3.org/1999/xlink" xmlns:svgjs="http://svgjs.dev/svgjs" viewBox="0 0 800 800" opacity="0.79"><defs><linearGradient x1="50%" y1="0%" x2="50%" y2="100%" id="uundulate-grad"><stop stop-color="hsl(305, 77%, 50%)" stop-opacity="1" offset="45%"></stop><stop stop-color="hsl(0, 6%, 15%)" stop-opacity="1" offset="100%"></stop></linearGradient></defs><g stroke-width="1" stroke="url(#uundulate-grad)" fill="none"><path d="M861.075322243029 109.05446820617954C877.1017431691967 266.1325291817294 680.9295641731233 427.8542909925335 573.0588718223254 605.0521755803502C465.1881794715274 782.2500601681668 473.82120745303973 928.5965985876569 343.2959989591984 959.6043142277003C212.77079046535732 990.6120298677438 -3.588301906743709 878.432013968617 -53.462128948113445 753.88921065256C-103.33595598948312 629.346407336503 80.57420702981864 530.9937107602068 103.90162916062422 361.7988583106255C127.22905129142998 192.60400586104447 -23.205174015265243 48.15420543892844 58.50949727975501 -58.246081105429084C140.22416857477515 -164.6463676497866 328.93083784270607 -183.77679820887482 496.1320513767214 -148.9225171022897C663.3332649107365 -114.06823599570464 845.0489013168612 -48.023592769370396 861.075322243029 109.05446820617954C877.1017431691967 266.1325291817294 680.9295641731233 427.8542909925335 573.0588718223254 605.0521755803502 "></path><path d="M850.5963376465966 115.66683544487955C866.2585217335331 269.17494048916706 674.5448013510068 427.2212077133619 569.1257156445453 600.3918676514554C463.70662993808355 773.5625275895491 472.1434527381979 916.583008317687 344.58472625558034 946.8860031477295C217.02599977296268 977.188997977772 5.584159500227713 867.5585278945343 -43.156171472019935 745.8462428356604C-91.89650244426758 624.1339577767865 87.83388414277726 528.0165497590424 110.63113758879194 362.6670348651336C133.4283910348065 197.31751997122478 -13.586874605827404 56.150669558702475 66.27064506885142 -47.83142865510149C146.1281647435303 -151.81352686890546 330.5460460735537 -170.50917491528708 493.9472320272504 -136.44703656112438C657.348417980947 -102.38489820696174 834.93415355966 -37.84126959940778 850.5963376465966 115.66683544487955C866.2585217335331 269.17494048916706 674.5448013510068 427.2212077133619 569.1257156445453 600.3918676514554 "></path><path d="M840.1172920150079 122.27926371873593C855.4152392627134 272.21741283176084 668.1599774937342 426.5881854693466 565.1924984316089 595.7316207577169C462.22501936948356 764.8750560460874 470.4656369881998 904.5694790828734 345.8733925168059 934.167753102915C221.281148045412 963.7660271229563 14.756559872042942 856.685102855608 -32.85027503108273 737.8033360539171C-80.45710993420835 618.9215692522264 95.0935002205797 525.0394497930345 117.3605849818033 363.5352724547979C139.6276697430269 202.03109511656146 -3.9686362315458155 64.14719471363264 74.0317318227917 -37.416715169617646C152.0320998771292 -138.98062505286805 332.16119326924513 -157.24149058654314 491.76235164262323 -123.97149498480286C651.3635100160016 -90.70149938306253 824.8193447673023 -27.658885394288916 840.1172920150079 122.27926371873593C855.4152392627134 272.21741283176084 668.1599774937342 426.5881854693466 565.1924984316089 595.7316207577169 "></path><path d="M829.6383684537316 128.89163095743606C844.5720788622059 275.2598241391984 661.775275706774 425.955102190175 561.259403288985 591.0713128288223C460.74353087119596 756.1875234674696 468.7879433085143 892.5558888129035 347.16218084834395 921.4494420229439C225.53641838817384 950.3429952329845 23.929082314170614 845.8116167815256 -22.54425651983297 729.7603682370177C-69.01759535383655 613.7091196925098 102.35323836869463 522.0622887918703 124.09015444512715 364.4034490093061C145.8270705215598 206.7446092267419 5.649724213048273 72.14365883340668 81.79294064704442 -27.00206271929011C157.9361570810405 -126.14778427198684 333.7764625352488 -143.97386729295545 489.5775933283086 -111.49601444363753C645.3787241213681 -79.01816159431962 814.704658045257 -17.476562224326358 829.6383684537316 128.89163095743606C844.5720788622059 275.2598241391984 661.775275706774 425.955102190175 561.259403288985 591.0713128288223 "></path><path d="M819.159383857299 135.50405923129244C833.7288574265426 278.3022964817924 655.3905128846577 425.32207994615976 557.3262471112048 586.411065935084C459.2619813377521 747.5000519240082 467.1101885936723 880.5423595780901 348.4509081447259 908.7311919781296C229.7916276957793 936.9200243781693 33.10154372114209 834.9381917425992 -12.23829904373946 721.7174614552746C-57.57814180862101 608.4967311679502 109.61291548165332 519.0851888258626 130.81966287329482 365.2716865989705C152.02641026493632 211.45818437207868 15.268023622486112 80.14018398833696 89.55408843614089 -16.587349233806265C163.84015324979566 -113.31488245594943 335.39167076609647 -130.70618296421145 487.39277397883757 -99.02047286731596C639.3938771915788 -67.33476277042041 804.5899102880558 -7.294178019207493 819.159383857299 135.50405923129244C833.7288574265426 278.3022964817924 655.3905128846577 425.32207994615976 557.3262471112048 586.411065935084 "></path><path d="M808.6803992608666 142.11642646999258C822.8856359908789 281.3447077892299 649.0057500625412 424.68899666698815 553.3930909334248 581.7507580061892C457.78043180430836 738.8125193453902 465.4324338788306 868.5287693081202 349.7396354411078 896.0128808981588C234.04683700338478 923.4969924881975 42.274005128113515 824.0647056685166 -1.9323415676460058 713.6744936383752C-46.13868826340553 603.2842816082336 116.87259259461194 516.1080278246984 137.54917130146248 366.1398631534787C158.22575000831296 216.1716984822591 24.88632303192395 88.13664810811088 97.31523622523736 -6.172696783478671C169.7441494185507 -100.48204167506827 337.0068789969441 -117.43855967062376 485.20795462936667 -86.54499232615063C633.4090302617893 -55.65142498167751 794.4751625308543 2.888145150755122 808.6803992608666 142.11642646999258C822.8856359908789 281.3447077892299 649.0057500625412 424.68899666698815 553.3930909334248 581.7507580061892 "></path><path d="M798.2014146644342 148.7287937086926C812.0424145552151 284.38711909666756 642.6209872404247 424.05591338781653 549.4599347556446 577.0904500772946C456.2988822708645 730.1249867667725 463.75467916398884 856.5151790381503 351.0283627374895 883.2945698181879C238.30204631099036 910.0739605982255 51.44646653508494 813.1912195944342 8.373615908447505 705.6315258214756C-34.699234718189985 598.0718320485173 124.13226970757063 513.1308668235342 144.27867972963008 367.0080397079869C164.42508975168948 220.88521259243953 34.50462244136179 96.13311222788491 105.07638401433383 4.241955666848867C175.64814558730586 -87.64920089418712 338.62208722779167 -104.17093637703607 483.02313527989577 -74.06951178498531C627.4241833319998 -43.96808719293455 784.3604147736528 13.070468320717737 798.2014146644342 148.7287937086926C812.0424145552151 284.38711909666756 642.6209872404247 424.05591338781653 549.4599347556446 577.0904500772946 "></path><path d="M787.7224300680016 155.34122198254897C801.1991931195519 287.42959143926146 636.2362244183083 423.4228911438013 545.5267785778645 572.4302031835562C454.81733273742077 721.437515223311 462.076924449147 844.5016498033369 352.3170900338714 870.5763197733734C242.55725561859583 896.6509897434098 60.618927942056416 802.3177945555076 18.67957338454096 697.5886190397325C-23.259781172974442 592.8594435239572 131.3919468205293 510.1537668575264 151.0081881577977 367.8762772976513C170.62442949506612 225.59878773777632 44.122921850799685 104.12963738281519 112.8375318034303 14.65666915233271C181.55214175606102 -74.81629907814971 340.2372954586392 -90.90325204829207 480.83831593042487 -61.593970208663734C621.4393364022103 -32.28468836903539 774.2456670164515 23.2528525258366 787.7224300680016 155.34122198254897C801.1991931195519 287.42959143926146 636.2362244183083 423.4228911438013 545.5267785778645 572.4302031835562 "></path><path d="M777.243384436413 161.9535892212491C790.3559106487319 290.472002746699 629.8514005610356 422.78980786462967 541.5935613649281 567.7698952546615C453.33572216882067 712.7499826446933 460.3991086991489 832.4880595333668 353.6057562950971 857.8580086934026C246.81240389104505 883.227957853438 69.79132831387165 791.4443084814252 28.98546982547822 689.5456512228329C-11.820388662915207 587.6469939642409 138.6515628983317 507.17660585636213 157.73763555080905 368.7444538521595C176.8237082032864 230.31230184795663 53.74116022508127 112.12610150258911 120.59861855737051 25.071321602660305C187.4560768896598 -61.983458297268555 341.8524426543306 -77.63562875470438 478.6534355457976 -49.11848966749841C615.4544284372646 -20.601350580292433 764.130858224094 33.43517569579922 777.243384436413 161.9535892212491C790.3559106487319 290.472002746699 629.8514005610356 422.78980786462967 541.5935613649281 567.7698952546615 "></path><path d="M766.7644608751366 168.56601749510548C779.5127502482246 293.5144750892929 623.4666987740754 422.1567856206143 537.6604662223043 563.1096483609231C451.8542336705332 704.0625111012318 458.7214150194634 820.4745302985534 354.89454462663514 845.139758648588C251.06767423380688 869.8049869986226 78.96385075599932 780.570883442499 39.29148833672798 681.5027444410898C-0.38087408254341426 582.4346054396808 145.91130104644662 504.1995058903543 164.46720501413296 369.6126914418239C183.0231089818193 235.02587699329342 63.35952066967536 120.12262665751939 128.3598273816233 35.48603508814415C193.36013409357122 -49.15055648123115 343.4677119203344 -64.36794442596045 476.46867723148284 -36.642948091176834C609.4696425426314 -8.917951756393279 754.0161715020486 43.61755990091808 766.7644608751366 168.56601749510548C779.5127502482246 293.5144750892929 623.4666987740754 422.1567856206143 537.6604662223043 563.1096483609231 "></path><path d="M756.2854762787042 175.17844576896186C768.6695288125611 296.5569474318868 617.0819359519589 421.52376337659905 533.7273100445241 558.4494014671847C450.3726841370893 695.3750395577702 457.04366030462154 808.4610010637398 356.18327192301695 832.4215086037734C255.32288354141247 856.382016143807 88.13631216297074 769.6974584035725 49.597445812821434 673.4598376593467C11.058579462672128 577.2222169151207 153.1709781594053 501.2224059243464 171.19671344230062 370.48092903148824C189.22244872519587 239.7394521386301 72.9778200791132 128.11915181244967 136.12097517071976 45.900748573627936C199.26413026232632 -36.31765466519374 345.08292015118195 -51.10026009721645 474.28385788201194 -24.16740651485526C603.4847956128419 2.7654470675059315 743.9014237448473 53.799944106036946 756.2854762787042 175.17844576896186C768.6695288125611 296.5569474318868 617.0819359519589 421.52376337659905 533.7273100445241 558.4494014671847 "></path><path d="M745.8064916822718 181.790813007662C757.8263073768976 299.5993587393243 610.6971731298426 420.89068009742755 529.794153866744 553.78909353829C448.89113460364547 686.6875069791524 455.3659055897798 796.4474107937699 357.47199921939887 819.7031975238026C259.57809284901793 842.9589842538353 97.30877356994222 758.8239723294901 59.903403288914944 665.4168698424473C22.49803300788767 572.0097673554044 160.430655272364 498.2452449231822 177.92622187046823 371.34910558599654C195.42178846857246 244.45296624881053 82.59611948855104 136.1156159322237 143.88212295981623 56.31540102395553C205.16812643108142 -23.484813884312587 346.6981283820296 -37.83263680362876 472.09903853254104 -11.691925973689933C597.4999486830525 14.448784856248835 733.786675987646 63.98226727599956 745.8064916822718 181.790813007662C757.8263073768976 299.5993587393243 610.6971731298426 420.89068009742755 529.794153866744 553.78909353829 "></path><path d="M735.3275070858392 188.40324128151826C746.9830859412341 302.6418310819182 604.312410307726 420.2576578534122 525.8609976889638 549.1288466445515C447.40958507020173 678.0000354356907 453.68815087493795 784.4338815589563 358.7607265157807 806.984947478988C263.8333021566234 829.5360133990196 106.48123497691364 747.9505472905637 70.2093607650084 657.373963060704C33.937486553103156 566.7973788308443 167.69033238532262 495.2681449571743 184.65573029863583 372.21734317566074C201.6211282119491 249.16654139414732 92.21441889798888 144.11214108715387 151.6432707489127 66.73011450943937C211.07212259983652 -10.65191206827518 348.31333661287715 -24.56495247488482 469.91421918307014 0.7836156026316417C591.5151017532629 26.132183680148046 723.6719282304446 74.16465148111843 735.3275070858392 188.40324128151826C746.9830859412341 302.6418310819182 604.312410307726 420.2576578534122 525.8609976889638 549.1288466445515 "></path><path d="M724.8484919718286 195.01563903779652C736.1398339879923 305.684272906934 597.9276169680314 419.6246050918187 521.9278109936056 544.468569233235C445.92800501917986 669.3125333746513 452.01036564251797 772.4203218065645 360.04942329458436 794.2666669165953C268.08848094665086 816.1130120266259 115.653665866307 737.0770917340592 80.51528772352378 649.3310257613828C45.37690958074057 561.5849597887062 174.94997898070318 492.29101447358835 191.38520820922537 373.08555024774705C207.8204374377475 253.88008602190587 101.83268778984859 152.10863572450603 159.40438802043104 77.14479747734504C216.9760882510135 2.1809592301841008 349.92851432614657 -11.297298663718948 467.7293693160211 13.259126661375092C585.5302243058954 37.815551986469075 713.5571499556651 84.34700516865911 724.8484919718286 195.01563903779652C736.1398339879923 305.684272906934 597.9276169680314 419.6246050918187 521.9278109936056 544.468569233235 "></path><path d="M714.3695378929743 201.62803679407477C725.2966430699068 308.72671473194964 591.5428846634932 418.9915523302252 517.9946853334036 539.8082918219184C444.44648600331413 660.6250313136115 450.33264144525424 760.4067620541728 361.3381811085444 781.5483863542026C272.34372077183446 802.6900106542321 124.82615779085654 726.2036361775547 90.82127571719536 641.2880884620614C56.81639364353424 556.3725407465679 182.20968661124 489.3138839900023 198.1147471549711 373.95375731983336C214.01980769870227 258.5936306496644 111.45101771686461 160.1051303618582 167.1655663271057 87.55948044525076C222.88011493734678 15.013830528643382 351.54375307457235 1.9703551474468668 465.5445804841281 25.734637720118485C579.5454078936841 49.49892029279016 703.4424327160418 94.52935885619985 714.3695378929743 201.62803679407477C725.2966430699068 308.72671473194964 591.5428846634932 418.9915523302252 517.9946853334036 539.8082918219184 "></path><path d="M703.8905532965418 208.24043455035303C714.4534216342433 311.7691565569655 585.1581218413767 418.3584995686318 514.0615291556235 535.1480144106018C442.9649364698703 651.937529252572 448.6548867304125 748.3932023017812 362.6269084049263 768.83010579181C276.5989300794399 789.2670092818385 133.99861919782802 715.3301806210504 101.12723319328887 633.2451511627401C68.25584718874973 551.1601217044297 189.46936372419862 486.33675350641636 204.84425558313876 374.82196439191966C220.21914744207885 263.3071752774231 121.06931712630245 168.1016249992103 174.9267141162021 97.97416341315648C228.78411110610182 27.846701827102663 353.1589613054199 15.238008958612681 463.3597611346572 38.210148778861935C573.5605609638947 61.18228859911119 693.3276849588403 104.71171254374059 703.8905532965418 208.24043455035303C714.4534216342433 311.7691565569655 585.1581218413767 418.3584995686318 514.0615291556235 535.1480144106018 "></path><path d="M693.4115381825312 214.85277127147504C703.6101696810016 314.81153734682493 578.7733285016823 417.7253857718822 510.12834246026523 530.487675964129C441.4833564188484 643.249966156376 446.97710149799263 736.3795815142335 363.9156051837299 756.111764194261C280.8541088694674 775.8439468742886 143.17105008722132 704.4566640293898 111.43316015180426 625.2021528282626C79.69527021638714 545.9476416271353 196.72901031957917 483.35956198767406 211.57373349372824 375.6901104288497C226.4184566678773 268.0206588700254 130.68758601816216 176.09805860140614 182.6878313877205 108.38878534590594C234.68807675727885 40.679512090405694 354.7741390186894 28.505601734622303 461.1749112676082 50.685598802449135C567.5756835165271 72.86559587027602 683.2129066840608 114.89400519612508 693.4115381825312 214.85277127147504C703.6101696810016 314.81153734682493 578.7733285016823 417.7253857718822 510.12834246026523 530.487675964129 "></path><path d="M682.9325535860987 221.46523006290948C692.7669482453381 317.85404020699696 572.3885656795658 417.09239404544496 506.1951862824851 525.8274595879687C440.00180688540456 634.5625251304925 445.29934678315067 724.3660827969978 365.2043324801118 743.3935446670246C285.10931817707296 762.4210065370512 152.34351149419274 693.5832695080414 121.73911762789771 617.1592765640975C91.13472376160269 540.7352836201533 203.98868743253786 480.38249253924437 218.30324192189585 376.5583785360923C232.6177964112539 272.7342645329402 140.3058854276 184.09461427391454 190.44897917681698 118.80352934896786C240.59207292603395 53.512444424021226 356.38934724953697 41.77331658094437 458.9900919181373 63.161170896348835C561.5908365867375 84.5490252117533 673.0981589268595 125.07641991882207 682.9325535860987 221.46523006290948C692.7669482453381 317.85404020699696 572.3885656795658 417.09239404544496 506.1951862824851 525.8274595879687 "></path><path d="M672.4535995072443 228.07759730160967C681.9237573272526 320.8964515144346 566.0038333750274 416.45931076627335 502.2620606222831 521.1671516590741C438.52028786953883 625.8749925518748 443.62162258588705 712.3524925270281 366.49309029407186 730.6752335870538C289.36455800225656 748.9979746470794 161.51600341874234 682.709783433959 132.04510562156935 609.1163087471981C102.57420782439635 535.522834060437 211.2483950630746 477.4053315380802 225.03278086764163 377.42655509060046C238.8171666722086 277.4477786431207 149.92421535461597 192.09107839368852 198.21015748349157 129.21818179929545C246.49609961236717 66.34528520490238 358.00458599796275 55.04093987453206 456.8053030862445 75.63665143751416C555.6060201745262 96.23236300049626 662.9834416872361 135.25874308878468 672.4535995072443 228.07759730160967C681.9237573272526 320.8964515144346 566.0038333750274 416.45931076627335 502.2620606222831 521.1671516590741 "></path><path d="M661.9745843932338 234.69002557546594C671.080505374011 323.9389238570284 559.6190400353328 415.826288522258 498.32887392692487 516.5069047653357C437.03870781851697 617.1875210084133 441.9438373534672 700.3389632922144 367.78178707287555 717.9569835422392C293.6197367922839 735.5750037922638 170.6884343081357 671.8363583950327 142.35103258008468 601.0734019654548C114.01363085203371 530.310445535877 218.50804165845517 474.42823157207226 231.76225877823111 378.2947926802648C245.01647589800712 282.1613537884574 159.54248424647568 200.08760354861874 205.97127475500992 139.6328952847793C252.40006526354415 79.17818702093979 359.61976371123217 68.30862420327605 454.6204532191954 88.11219301383574C549.6211427271585 107.91576182439542 652.8686634124566 145.44112729390355 661.9745843932338 234.69002557546594C671.080505374011 323.9389238570284 559.6190400353328 415.826288522258 498.32887392692487 516.5069047653357 "></path><path d="M651.4955997968013 241.3024233317442C660.2372839383473 326.98136568204416 553.2342772132165 415.1932357606646 494.39571774914475 511.8466273540191C435.5571582850732 608.5000189473736 440.26608263862533 688.3254035398228 369.07051436925735 705.2387029798465C297.8749460998895 722.1520024198702 179.86089571510712 660.9629028385282 152.6569900561782 593.0304646661335C125.45308439724926 525.0980264937388 225.76771877141385 471.4511010884862 238.49176720639878 379.1629997523512C251.21581564138364 286.87489841621596 169.16078365591352 208.0840981859709 213.73242254410638 150.047578252685C258.30406143229925 92.01105831939907 361.2349719420797 81.57627801444187 452.43563386972437 100.58770407257919C543.6362957973691 119.5991301307165 642.7539156552552 155.6234809814443 651.4955997968013 241.3024233317442C660.2372839383473 326.98136568204416 553.2342772132165 415.1932357606646 494.39571774914475 511.8466273540191 "></path><path d="M641.016645717947 247.91482108802245C649.3940930202618 330.0238075070599 546.8495449086781 414.5601829990711 490.46259208894276 507.18634994270246C434.0756392692075 599.8125168863339 438.5883584413616 676.311843787431 370.3592721832174 692.5204224174538C302.1301859250731 708.7290010474765 189.03338763965667 650.0894472820238 162.96297804984982 584.9875273668122C136.89256846004292 519.8856074516005 233.02742640195066 468.47397060490016 245.2213061521445 380.0312068244374C257.4151859023384 291.5884430439745 178.77911358292954 216.08059282332306 221.49360085078104 160.46226122059068C264.20808811863253 104.84392961785835 362.8502106905055 94.84393182560768 450.2508450378316 113.06321513132264C537.6514793851577 131.28249843703753 632.639198415632 165.80583466898497 641.016645717947 247.91482108802245C649.3940930202618 330.0238075070599 546.8495449086781 414.5601829990711 490.46259208894276 507.18634994270246 "></path><path d="M630.5376306039363 254.52724936187883C638.5508410670202 333.0662798496537 540.4647515689835 413.92716075505587 486.5294053935845 502.52610304896416C432.5940592181855 591.1250453428725 436.91057320894174 664.2983145526175 371.6479689620211 679.8021723726392C306.38536471510054 695.306030192661 198.20581852905002 639.2160222430975 173.26890500836515 576.9446205850691C148.33199148768028 514.6732189270406 240.28707299733117 465.49687063889246 251.950784062734 380.8994444141018C263.61449512813687 296.3020181893113 188.39738247478925 224.07711797825328 229.25471812229938 170.87697470607452C270.11205376980945 117.67683143389576 364.4653884037749 108.11161615435168 448.06599517078257 125.53875670764421C531.6666019377901 142.96589726093674 622.5244201408525 175.98821887410384 630.5376306039363 254.52724936187883C638.5508410670202 333.0662798496537 540.4647515689835 413.92716075505587 486.5294053935845 502.52610304896416 "></path><path d="M620.058646007504 261.1396166005789C627.7076196313567 336.10869115709136 534.0799887468671 413.29407747588425 482.5962492158044 497.8657951200694C431.1125096847418 582.4375127642546 435.2328184940999 652.2847242826476 372.9366962584029 667.0838612926684C310.640574022706 681.8829983026891 207.37827993602144 628.3425361690149 183.57486248445866 568.9016527681695C159.77144503289583 509.46076936732413 247.54675011028985 462.51970963772817 258.68029249090165 381.7676209686099C269.81383487151345 301.01553229949167 198.0156818842271 232.07358209802726 237.01586591139585 181.29162715640211C276.0160499385646 130.5096722147769 366.08059663462257 121.37923944793937 445.8811758213117 138.01423724880954C525.6817550080008 154.64923504967965 612.4096723836511 186.17054204406645 620.058646007504 261.1396166005789C627.7076196313567 336.10869115709136 534.0799887468671 413.29407747588425 482.5962492158044 497.8657951200694 "></path><path d="M609.5796919286495 267.75201435685716C616.8644287132713 339.15113298210713 527.6952564423289 412.66102471429076 478.6631235556024 493.20551770875295C429.63099066887605 573.750010703215 433.55509429683616 640.271164530256 374.22545407236294 654.3655807302757C314.89581384788966 668.4599969302956 216.55077186057105 617.4690806125105 193.88085047813024 560.8587154688482C171.2109290956895 504.24835032518604 254.80645774082666 459.54257915414223 265.40983143664744 382.6358280406962C276.01320513246816 305.7290769272503 207.63401181124306 240.07007673537942 244.77704421807044 191.70631012430783C281.92007662489783 143.3425435132362 367.69583538304823 134.64689325910518 443.6963869894188 150.489748307553C519.6969385957893 166.33260335600073 602.2949551440279 196.3528957316072 609.5796919286495 267.75201435685716C616.8644287132713 339.15113298210713 527.6952564423289 412.66102471429076 478.6631235556024 493.20551770875295 "></path><path d="M599.1007073322171 274.3643968543463C606.0212072776076 342.1935595483337 521.3104936202124 412.0279566939082 474.7299673778223 488.54522503864723C428.1494411354322 565.0624933833863 431.8773395819944 628.2575895190752 375.51418136874474 641.647284909094C319.1510231554952 655.0369802991128 225.72323326754247 606.5956097972171 204.18680795422375 552.8157629107378C182.65038264090504 499.03591602425865 262.06613485378534 456.5654334117671 272.13933986481504 383.50401985399344C282.21254487584474 310.44260629621976 217.2523112206809 248.06655611394245 252.5381920071669 202.12097783342443C287.82407279365293 156.1753995529064 369.3110436138959 147.914531811482 441.5115676399479 162.96524410750737C513.7120916659999 178.0159564035327 592.1802073868264 206.53523416035887 599.1007073322171 274.3643968543463C606.0212072776076 342.1935595483337 521.3104936202124 412.0279566939082 474.7299673778223 488.54522503864723 "></path><path d="M588.6216922182065 280.9768098694136C595.1779553243659 345.23601663213856 514.9257002805177 411.3949191911039 470.79678068246403 483.88496288611987C426.66786108441033 556.3750065811357 430.19955434957444 616.2440450254725 376.80287814754854 628.9290196054903C323.4062019455225 641.6139941855081 234.89566415693582 595.7221694995017 214.49273491273908 544.7728408702055C194.0898056685424 493.8235122409095 269.32578144916585 453.5883181869701 278.8688177754045 384.3722421848688C288.4118541016432 315.1561661827674 226.8705801125406 256.0630660100836 260.29930927868526 212.53567606011921C293.7280384448299 169.00828611015476 370.9262213271653 161.18220088143687 439.32671777289875 175.44077042503983C507.7272142186323 189.69933996864285 582.065429112047 216.71760310668867 588.6216922182065 280.9768098694136C595.1779553243659 345.23601663213856 514.9257002805177 411.3949191911039 470.79678068246403 483.88496288611987 "></path><path d="M578.1427381393521 287.58920762569187C584.3347644062806 348.27845845715433 508.54096797597947 410.7618664295105 466.86365502226204 479.2246854748032C425.1863420685447 547.687504520096 428.5218301523107 604.2304852730808 378.0916359615085 616.2107390430976C327.66144177070623 628.1909928131145 244.06815608148537 584.8487139429972 224.79872290641072 536.7299035708843C205.52928973133606 488.6110931987713 276.58548907970265 450.6111877033841 285.5983567211503 385.2404492569551C294.6112243625979 319.869710810526 236.48891003955663 264.0595606474358 268.06048758535985 222.95035902802493C299.63206513116313 181.84115740861404 372.541460075591 174.44985469260268 437.141928941006 187.91628148378328C501.74239780642097 201.38270827496387 571.9507118724237 226.8999567942294 578.1427381393521 287.58920762569187C584.3347644062806 348.27845845715433 508.54096797597947 410.7618664295105 466.86365502226204 479.2246854748032 "></path><path d="M567.6637535429196 294.2016358995482C573.491542970617 351.32093079974817 502.1562051538631 410.12884418549515 462.9304988444819 474.5644385810648C423.70479253510086 539.0000329766344 426.844075437469 592.2169560382672 379.38036325789034 603.4924889982831C331.9166510783117 614.7680219582988 253.24061748845685 573.9752889040709 235.10468038250423 528.6869967891411C216.9687432765516 483.3987046742112 283.84516619266134 447.63408773737615 292.3278651493179 386.10868684661943C300.81056410597455 324.5832859558627 246.10720944899447 272.056085802366 275.8216353744564 233.36507251350872C305.5360612999183 194.67405922465144 374.1566683064386 187.71753902134668 434.9571095915351 200.39182306010485C495.7575508766315 213.06610709886309 561.8359641152223 237.08234099934828 567.6637535429196 294.2016358995482C573.491542970617 351.32093079974817 502.1562051538631 410.12884418549515 462.9304988444819 474.5644385810648 "></path><path d="M557.184738428909 300.8140031382483C562.6482910173753 354.36334210718576 495.77141181416846 409.49576090632354 458.9973121491237 469.9041306521701C422.2232124840789 530.3125003980167 425.166290205049 580.2033657682973 380.6690600366941 590.7741779183123C336.1718298683391 601.344990068327 262.41304837785015 563.1018028299883 245.41060734101956 520.6440289722416C228.40816630418897 478.1862551144949 291.10481278804184 444.6569267362121 299.05734305990745 386.9768634011276C307.009873331773 329.29680006604315 255.72547834085418 280.05254992214003 283.5827526459747 243.77972496383632C311.44002695109526 207.5069000055326 375.77184601970805 200.98516231493437 432.77225972448593 212.86730360127018C489.77267342926393 224.749444887606 551.7211858404428 247.2646641693109 557.184738428909 300.8140031382483C562.6482910173753 354.36334210718576 495.77141181416846 409.49576090632354 458.9973121491237 469.9041306521701 "></path><path d="M546.7057996088438 307.4264008945266C551.8051153580789 357.40578393220153 489.38669476841926 408.86270814473016 455.06420174771074 465.2438532408536C420.74170872700233 521.6249983369771 423.48858126657444 568.1898060159058 381.9578331094431 578.0558973559196C340.4270849523118 587.9219886959334 271.5855555611888 552.2283472734839 255.71661059348025 512.6010916729203C239.8476656257717 472.9738360723568 298.3645356773677 441.67979625262615 305.78689726444225 387.8450704732139C313.2092588515168 334.01034469380176 265.3438235266592 288.04904455949213 291.3439462114384 254.19440793174203C317.34406889621755 220.33977130399188 377.38710002692284 214.25281612610019 430.5874861513822 225.34281466001363C483.78787227584166 236.43281319392707 541.6064838596085 257.44701785685163 546.7057996088438 307.4264008945266C551.8051153580789 357.40578393220153 489.38669476841926 408.86270814473016 455.06420174771074 465.2438532408536 "></path><path d="M536.2267997536221 314.03879865080484C540.9618786636263 360.4482257572173 483.0019166875137 408.2296553831367 451.13103031114156 460.58357582953704C419.2601439347694 512.9374962759374 421.8108112929435 556.176246263514 383.24654514703593 565.3376167935269C344.6822790011283 574.4989873235397 280.7580017093712 541.3548917169795 266.02255281078465 504.5581543735991C251.28710391219818 467.7614170302186 305.62419753153733 438.7026657690401 312.5163904338208 388.71327754530023C319.4085833361043 338.72388932156036 274.962107677308 296.0455391968443 299.1050787417458 264.60909089964775C323.2480498061836 233.17264260245122 379.0022929989814 227.52046993726606 428.40265154312226 237.81832571875708C477.80301008726315 248.1161815002481 531.491720843618 267.62937154439237 536.2267997536221 314.03879865080484C540.9618786636263 360.4482257572173 483.0019166875137 408.2296553831367 451.13103031114156 460.58357582953704 "></path><path d="M525.7477846396116 320.65119640708303C530.1186267103847 363.490667582233 476.6171233478192 407.59660262154324 447.1978436157833 455.9232984182205C417.77856388374755 504.2499942148977 420.1330260605236 544.1626865111223 384.5352419258396 552.6193362311342C348.9374577911557 561.0759859511461 289.93043259876447 530.481436160475 276.32847976930003 496.51521707427764C262.7265269398356 462.5489979880804 312.8838441269179 435.72553528545404 319.2458683444103 389.58148461738654C325.60789256190276 343.4374339493189 284.5803765691677 304.0420338341964 306.86619601326413 275.0237738675534C329.15201545736056 246.0055139009105 380.6174707122508 240.78812374843187 426.2178016760731 250.29383677750053C471.81813263989557 259.7995498065692 521.3769425688386 277.81172523193305 525.7477846396116 320.65119640708303C530.1186267103847 363.490667582233 476.6171233478192 407.59660262154324 447.1978436157833 455.9232984182205 "></path><path d="M515.2688458195463 327.2636246809394C519.2754510510882 366.53313992482686 470.2324063020699 406.96358037752793 443.2647332143704 451.2630515244821C416.2970601266709 495.5625226714362 418.455317122049 532.1491572763088 385.82401499858867 539.9010861863196C353.1927128751284 547.6530150963305 299.10293978210314 519.6080111215488 286.63448302176073 488.47231029253453C274.16602626141827 457.3366094635203 320.1435670162437 432.74843531944623 325.9754225489451 390.4497222070509C331.8072780816466 348.15100909465565 294.1987217549727 312.0385589891266 314.6273895787278 285.43848735303726C335.05605740248285 258.8384157169479 382.2327247194656 254.0558080771758 424.0330281029694 262.7693783538221C465.8333314864732 271.4829486304684 511.2622405880044 287.9941094370519 515.2688458195463 327.2636246809394C519.2754510510882 366.53313992482686 470.2324063020699 406.96358037752793 443.2647332143704 451.2630515244821 "></path><path d="M504.78984596432474 333.87599191963955C508.43221435663565 369.5755512322645 463.8476282211644 406.3304970983563 439.3315617778012 446.6027435955874C414.815495334438 486.8749900928185 416.7775471484181 520.135567006339 387.11272703618147 527.1827751063488C357.44790692394486 534.2299832063587 308.2753859302855 508.73452504746615 296.9404252390651 480.42934247563505C285.60546454784475 452.12415990380396 327.40322887041333 429.77127431828205 332.7049157183237 391.31789876155904C338.00660256623405 352.8645232048361 303.81700590562156 320.03502310890065 322.3885221090352 295.85313980336485C340.9600383124489 271.67125649782906 383.8479176915241 267.32343137076356 421.8481934947094 275.24485889498743C459.84846929789467 283.1662864192113 501.14747757201394 298.17643260701453 504.78984596432474 333.87599191963955C508.43221435663565 369.5755512322645 463.8476282211644 406.3304970983563 439.3315617778012 446.6027435955874 "></path><path d="M494.3108461091033 340.48838967591774C497.58897766218297 372.6179930572802 457.46285014025887 405.6974443367629 435.398390341232 441.94246618427087C413.33393054220517 478.1874880317788 415.0997771747872 508.12200725394723 388.40143907377427 514.4644945439561C361.70310097276126 520.806981833965 317.4478320784679 497.86106949096177 307.24636745636957 472.3864051763137C297.0449028342712 446.9117408616657 334.66289072458295 426.794143834696 339.43440888770226 392.18610583364534C344.20592705082163 357.5780678325946 313.43529005627033 328.03151774625275 330.14965463934266 306.2678227712705C346.864019222415 284.50412779628834 385.46311066358265 280.5910851819294 419.6633588864494 287.7203699537309C453.86360710931615 294.84965472553233 491.0327145560235 308.3587862945553 494.3108461091033 340.48838967591774C497.58897766218297 372.6179930572802 457.46285014025887 405.6974443367629 435.398390341232 441.94246618427087 "></path><path d="M483.8318920302488 347.100787432196C486.7457867440976 375.66043488229593 451.0781178357206 405.06439157516945 431.46526468103 437.28218877295427C411.8524115263395 469.4999859707391 413.42205297752355 496.1084475015555 389.69019688773426 501.7462139815634C365.9583407979449 507.38398046157135 326.62032400301746 486.9876139344574 317.55235545004115 464.3434678769924C308.48438689706484 441.6993218195275 341.9225983551197 423.81701335110995 346.16394783344805 393.0543129057316C350.40529731177634 362.29161246035324 323.0536199832863 336.0280123836049 337.91083294601725 316.68250573917624C352.7680459087482 297.3369990947476 387.0783494120084 293.8587389930952 417.4785700545566 300.19588101247433C447.8787906971048 306.5330230318534 480.91799731640026 318.541139982096 483.8318920302488 347.100787432196C486.7457867440976 375.66043488229593 451.0781178357206 405.06439157516945 431.46526468103 437.28218877295427 "></path><path d="M473.3528769162383 353.7132157060523C475.90253479085584 378.7029072248898 444.69332449602604 404.43136933115414 427.5320779856718 432.62194187921585C410.3708314753176 460.8125144272776 411.7442677451036 484.09491826674196 390.97889366653794 489.02796393674885C370.2135195879723 493.96100960675574 335.7927548924108 476.114188895531 327.85828240855653 456.30056109524924C319.92380992470225 436.48693329496746 349.18224495050026 420.83991338510214 352.89342574403753 393.922550495396C356.6046065375748 367.0051876056899 332.671888875146 344.0245375385351 345.6719502175356 327.0972192246601C358.6720115599252 310.16990091078503 388.6935271252778 307.1264233218392 415.2937201875075 312.6714225887959C441.89391324973724 318.2164218557526 470.80321904162065 328.7235241872149 473.3528769162383 353.7132157060523C475.90253479085584 378.7029072248898 444.69332449602604 404.43136933115414 427.5320779856718 432.62194187921585 "></path><path d="M462.87390757859487 360.3255982035415C465.0593286139814 381.74533379111654 438.30857693269866 403.79830131077165 423.5989370666807 427.96164920911025C408.88929720066284 452.12499710744885 410.0665282890509 472.08134325556114 392.26763622170887 476.3096681155671C374.4687441543669 480.53799297557305 344.9652315581713 465.2407180802375 338.16425514343905 448.2576085371388C331.36327872870686 431.2744989940402 356.441937322248 417.862767642727 359.6229494309942 394.79074230869327C362.80396153974044 371.71871697465946 342.2902035433729 352.0210169170982 353.4331132654211 337.51188693377674C364.57602298746934 323.00275695045525 390.30875061491446 320.39406187421594 413.1089160968256 325.14691838875024C435.90908157873685 329.8997749032846 460.68848654320834 338.90586261596656 462.87390757859487 360.3255982035415C465.0593286139814 381.74533379111654 438.30857693269866 403.79830131077165 423.5989370666807 427.96164920911025 "></path><path d="M452.39492298216237 366.93801121860884C454.2161071783178 384.7877908749213 431.9238141105822 403.1652638079672 419.6657808889006 423.30138705658277C407.40774766721904 443.4375103051983 408.38877357420904 460.06779876195856 393.55636351809073 463.59140281196346C378.7239534619724 467.1150068619684 354.1376929651428 454.36727778252214 348.47021261953256 440.2146864966066C342.80273227392235 426.06209521069104 363.70161443520664 414.8856524179301 366.35245785916186 395.6589646395686C369.003301283117 376.43227686120713 351.90850295281075 360.0175268132394 361.1942610545176 347.92658516047146C370.48001915622444 335.8356435077036 391.92395884576206 333.6617309441708 410.9240967473547 337.62244470628275C429.92423464894733 341.5831584683947 450.57373878600697 349.08823156229636 452.39492298216237 366.93801121860884C454.2161071783178 384.7877908749213 431.9238141105822 403.1652638079672 419.6657808889006 423.30138705658277 "></path><path d="M441.9159231269408 373.55040897488703C443.3728704838652 387.830232699937 425.5390360296767 402.5322110463738 415.7326094523314 418.64110964526617C405.9261828749862 434.7500082441586 406.7110036005782 448.0542390095668 394.84507555568354 450.87312224957077C382.9791475107889 453.69200548957474 363.31013911332514 443.49382222601776 358.776154836837 432.1717491972853C354.2421705603488 420.84967616855283 370.96127628937626 411.90852193434404 373.0819510285404 396.5271717116549C375.20262576770455 381.1458214889657 361.5267871034595 368.0140214505915 368.955393584825 358.3412681283772C376.3840000661905 348.6685148061629 393.5391518178206 346.9293847553367 408.7392621390947 350.0979557650262C423.9393724603688 353.26652677471577 440.45897577001654 359.27058524983704 441.9159231269408 373.55040897488703C443.3728704838652 387.830232699937 425.5390360296767 402.5322110463738 415.7326094523314 418.64110964526617 "></path><path d="M431.43695378929743 380.1628067311653C432.5296643069907 390.8726745249528 419.1542884663493 401.89915828478036 411.79946853334036 413.9808322339497C404.4446486003314 426.06250618311896 405.03326414452545 436.0406792571751 396.13381811085446 438.1548416871781C387.2343720771834 440.26900411718105 372.4826157790857 432.62036666951326 369.0821275717195 424.12881189796394C365.68163936435343 415.6372571264146 378.220968661124 408.93139145075804 379.8114747154971 397.39537878374114C381.40198076987025 385.8593661167243 371.1451017716865 376.01051608794364 376.7165566327106 368.7559510962829C382.2880114937347 361.50138610462216 395.15437530745726 360.1970385665025 406.5544580484128 362.57346682376965C417.9545407893684 364.9498950810368 430.34424327160417 369.4529389373778 431.43695378929743 380.1628067311653C432.5296643069907 390.8726745249528 419.1542884663493 401.89915828478036 411.79946853334036 413.9808322339497 "></path><path d="M420.95796919286494 386.77520448744355C421.68644287132713 393.9151163499685 412.7695256442329 401.26610552318687 407.86631235556024 409.3205548226331C402.9630990668876 417.3750041220793 403.3555094296836 424.0271195047834 397.42254540723627 425.4365611247854C391.48958138478895 426.84600274478737 381.6550771860571 421.7469111130089 379.38808504781304 416.08587459864265C377.121092909569 410.4248380842764 385.4806457740827 405.95426096717205 386.54098314366473 398.26358585582744C387.60132051324683 390.57291074448284 380.7634011811243 384.00701072529574 384.47770442180706 379.1706340641886C388.1920076624898 374.33425740308144 396.7695835383048 373.4646923776683 404.36963869894186 375.0489778825131C411.9696938595789 376.6332633873579 420.2294955144028 379.6352926249185 420.95796919286494 386.77520448744355C421.68644287132713 393.9151163499685 412.7695256442329 401.26610552318687 407.86631235556024 409.3205548226331 "></path><path d="M410.4789845964325 393.38760224372174C410.84322143566357 396.9575581749843 406.38476282211644 400.63305276159343 403.9331561777801 404.66027741131654C401.4815495334438 408.68750206103965 401.6777547148418 412.0135597523917 398.71127270361814 412.7182805623927C395.7447906923945 413.4230013723937 390.8275385930286 410.87345555650444 389.6940425239065 408.0429372993213C388.56054645478446 405.2124190421382 392.7403228870413 402.977130483586 393.2704915718324 399.1317929279137C393.8006602566234 395.2864553722414 390.38170059056216 392.0035053626479 392.23885221090353 389.5853170320943C394.0960038312449 387.1671287015407 398.3847917691524 386.7323461888342 402.18481934947096 387.52448894125655C405.98484692978946 388.3166316936789 410.11474775720137 389.81764631245926 410.4789845964325 393.38760224372174C410.84322143566357 396.9575581749843 406.38476282211644 400.63305276159343 403.9331561777801 404.66027741131654 "></path></g></svg>