<svg xmlns="http://www.w3.org/2000/svg" version="1.1" xmlns:xlink="http://www.w3.org/1999/xlink" xmlns:svgjs="http://svgjs.dev/svgjs" viewBox="0 0 800 800"><defs><linearGradient x1="50%" y1="0%" x2="50%" y2="100%" id="uundulate-grad"><stop stop-color="hsl(272, 99%, 54%)" stop-opacity="1" offset="45%"></stop><stop stop-color="hsl(316, 73%, 52%)" stop-opacity="1" offset="100%"></stop></linearGradient></defs><g stroke-width="1" stroke="url(#uundulate-grad)" fill="none"><path d="M721.3106883854637 385.73857393978574C727.7899249661708 527.2236631904381 717.03193377196 611.0061418671529 664.4452181061272 687.5036647765737C611.8585024402943 764.0011876859944 589.5995953087297 728.2481572091599 468.89445318946514 752.9266839050047C348.1893110702006 777.6052106008492 132.353778938802 868.7296765115043 85.06053593365618 805.9605929166285C37.76729292851036 743.1915093217526 212.7792208965206 606.0992485420153 241.88688676476522 451.6350826495991C270.99455263301 297.170916757183 143.22358298582094 156.8783979405623 224.77733210123068 64.53259663302975C306.3310812166404 -27.8132046745028 529.9004332928494 -58.54267556546381 633.3448825187314 8.37523637344367C736.7893317446136 75.29314831235115 714.8314518047564 244.25348468913353 721.3106883854637 385.73857393978574C727.7899249661708 527.2236631904381 717.03193377196 611.0061418671529 664.4452181061272 687.5036647765737 "></path><path d="M711.8603749187612 386.1580815019888C718.1490457176828 523.48184459821 707.7074660291842 604.8001327256097 656.6674184711698 679.0477284906358C605.6273709131555 753.2953242556619 584.0231375207547 718.5938534987342 466.868146640292 742.5465411741129C349.7131557598294 766.4992288494914 140.22572751464838 854.9435634098331 94.32346224494802 794.0206293324536C48.42119697524765 733.0976952550741 218.28571529713997 600.0375597923879 246.53727334573034 450.11645760268993C274.7888313943208 300.19535541299183 150.77583144263735 164.02908714980128 229.93094087818213 74.399338821902C309.0860503137268 -15.230409505997216 526.0798332112238 -45.056072429577 626.4817986363446 19.893665628774386C726.8837640614655 84.84340368712571 705.5717041198394 248.83431840576736 711.8603749187612 386.1580815019888C718.1490457176828 523.48184459821 707.7074660291842 604.8001327256097 656.6674184711698 679.0477284906358 "></path><path d="M702.4100614520587 386.57746699387917C708.5081664691949 519.7399039356696 698.3829982864081 598.5940015137542 648.8896188362124 670.5916701343855C599.3962393860168 742.5893387550168 578.4466797327797 708.9394277179961 464.8418400911189 732.1662763729087C351.23700044945815 755.3931250278213 148.0976760904947 841.1573282378497 103.58638855623985 782.0805436779665C59.07510102198495 723.0037591180833 223.7922096977593 593.9757489724482 251.18765992669546 448.59771048546827C278.58311015563163 303.21967199848837 158.3280798994537 171.17965428872776 235.08454965513351 84.26595894046181C311.84101941081326 -2.647736407804132 522.2592331295981 -31.56959136400269 619.6187147539576 31.411972813792545C716.9781963783174 94.39353699158784 696.3119564349224 253.41503005208892 702.4100614520587 386.57746699387917C708.5081664691949 519.7399039356696 698.3829982864081 598.5940015137542 648.8896188362124 670.5916701343855 "></path><path d="M692.9597479853562 386.9969440385041C698.8672872207068 515.9980548258636 689.0585305436322 592.387961854633 641.1118192012551 662.1357033308697C593.1651078588782 731.8834448071061 572.8702219448046 699.2850934899923 462.8155335419458 721.7861031244388C352.760845139087 744.2871127588855 155.96962466634108 827.3711846186006 112.84931486753163 770.1405495762137C69.72900506872224 712.9099145338268 229.2987040983786 587.9140297052428 255.83804650766052 447.079054920981C282.37738891694244 306.2440801367193 165.88032835627013 178.3303129803886 240.2381584320849 94.132670611756C314.5959885078996 9.935028243123327 518.4386330479724 -18.083018745694005 612.7556308715709 42.930371551545136C707.0726286951692 103.94376184878433 687.0522087500054 257.99583325114475 692.9597479853562 386.9969440385041C698.8672872207068 515.9980548258636 689.0585305436322 592.387961854633 641.1118192012551 662.1357033308697 "></path><path d="M683.5094345186536 387.4163600479727C689.2264079722188 512.2561446809011 679.7340628008562 586.1818611603554 633.3340195662978 653.6796754921974C586.9339763317394 721.1774898240392 567.2937641568296 689.6306982268322 460.7892269927727 711.4058688408127C354.2846898287157 733.1810394547933 163.84157324218745 813.5849799641951 122.11224117882347 758.2004944393045C80.38290911545954 702.8160089144138 234.80519849899792 581.8522494028811 260.4884330886256 445.56033832133744C286.17166767825324 309.2684272397937 173.43257681308648 185.4809106368932 245.3917672090363 103.99932124789387C317.350957604986 22.517731858894592 514.6180329663468 -4.59650716254157 605.892546989184 54.44870925414148C697.1670610120212 113.49392567082452 677.7924610650884 262.5765754150443 683.5094345186536 387.4163600479727C689.2264079722188 512.2561446809011 679.7340628008562 586.1818611603554 633.3340195662978 653.6796754921974 "></path><path d="M674.0591210519511 387.8358676101758C679.5855287237308 508.5143260886732 670.4095950580803 579.9758520188125 625.5562199313406 645.2237392062596C580.7028448046007 710.4716263937065 561.7173063688545 679.9763945164066 458.76292044359946 701.0257261099212C355.80853451834446 722.0750577034355 171.71352181803377 799.7988668625239 131.3751674901153 746.2605308551297C91.03681316219684 692.7221948477356 240.3116928996173 575.7905606532538 265.1388196695907 444.0417132744283C289.96594643956405 312.29286589560274 180.9848252699029 192.6315998461322 250.54537598598768 113.86606343676618C320.10592670207245 35.100527027400176 510.7974328847213 8.89009597334524 599.0294631067972 65.96713850947219C687.261493328873 123.04418104559915 668.5327133801713 267.15740913167826 674.0591210519511 387.8358676101758C679.5855287237308 508.5143260886732 670.4095950580803 579.9758520188125 625.5562199313406 645.2237392062596 "></path><path d="M664.6087770676705 388.25534465480064C669.9446189576646 504.7724769788672 661.0850967977264 573.7698123596912 617.778389778805 636.7677724027435C574.4716827598838 699.765732445796 556.1408180633014 670.3220602884028 456.7365833768482 690.6455528614514C357.33234869039507 710.9690454345 179.58543987630202 786.0127232432746 140.638063283829 734.3205367533769C101.69068669135595 682.6283502634791 245.8181567826585 569.7288413860484 269.78917573297764 442.523057709941C293.76019468329685 315.31727403383366 188.53704320914113 199.78225853779304 255.69895424536094 123.73277510806031C322.8608652815807 47.683291678327635 506.97680228551746 22.376668591653925 592.1663487068322 77.48553724722478C677.3558951281468 132.59440590279564 659.2729351776762 271.7382123307341 664.6087770676705 388.25534465480064C669.9446189576646 504.7724769788672 661.0850967977264 573.7698123596912 617.778389778805 636.7677724027435 "></path><path d="M655.1584636009679 388.6747606642691C660.3037397091766 501.0305668339048 651.7606290549504 567.5637116654136 610.0005901438477 628.3117445640713C568.2405512327451 689.059777462729 550.5643602753263 660.6676650252427 454.710276827675 680.2653185778253C358.8561933800238 699.8629721304078 187.4573884521484 772.2265185888693 149.9009895951208 722.3804816164678C112.34459073809325 672.5344446440663 251.32465118327787 563.6670610836868 274.43956231394276 441.00434111029745C297.55447344460765 318.3416211369081 196.08929166595755 206.93285619429764 260.8525630223123 133.59942574419824C325.61583437866716 60.26599529409884 503.1562022038919 35.8631801748063 585.3032648244453 89.00387494982107C667.4503274449987 142.14456972483583 650.0131874927592 276.31895449463354 655.1584636009679 388.6747606642691C660.3037397091766 501.0305668339048 651.7606290549504 567.5637116654136 610.0005901438477 628.3117445640713 "></path><path d="M645.7081653930545 389.09420719131595C650.6628757194777 497.28868720652065 642.4361765709634 561.3576414887143 602.2228057676796 619.8557472429773C562.0094349643955 678.3538529972402 544.9879177461403 651.0133002796608 452.68398553729094 669.8851148117774C360.3800533284416 688.7569293438938 195.32935228678377 758.4403444520419 159.1639311652017 710.4404569971367C122.9985100436196 662.4405695422317 256.83116084268624 557.6053112989032 279.0899641536969 439.48565502823203C301.3487674647075 321.3659987575609 203.64155538156297 214.08348436838037 266.0061870580528 143.4661068979143C328.3708187345426 72.84872942744823 499.3356173810553 49.34972227553686 578.4401962008476 100.52224316999553C657.5447750206397 151.69476406445415 640.7534550666313 280.89972717611136 645.7081653930545 389.09420719131595C650.6628757194777 497.28868720652065 642.4361765709634 561.3576414887143 602.2228057676796 619.8557472429773 "></path><path d="M636.257851926352 389.5136537183628C641.0219964709896 493.5468075791364 633.1117088281875 555.151571312015 594.4450061327221 611.3997499218833C555.7783034372568 667.6479285317514 539.4114599581653 641.3589355340789 450.6576789881178 659.5049110457295C361.9038980180703 677.65088655738 203.20130086263015 744.6541703152147 168.42685747649352 698.5004323778059C133.6524140903569 652.3466944403971 262.33765524330556 551.5435615141198 283.740350734662 437.9669689461666C305.1430462260183 324.39037637821355 211.19380383837938 221.2341125424631 271.15979583500416 153.33278805163036C331.12578783162894 85.43146356079757 495.5150172994297 62.83626437626742 571.5771123184606 112.04061139017C647.6392073374916 161.24495840407252 631.4937073817143 285.48049985758894 636.257851926352 389.5136537183628C641.0219964709896 493.5468075791364 633.1117088281875 555.151571312015 594.4450061327221 611.3997499218833 "></path><path d="M626.8075689772277 389.9331002454094C631.3811477400798 489.80492795175223 623.7872716029897 548.9455011353156 586.667237015343 602.9437526007891C549.5472024276962 656.9420040662626 533.8350326877684 631.704570788497 448.63140295652283 649.1247072796815C363.4277732252772 666.5448437708659 211.07327995605465 730.8679961783872 177.68981430536348 686.5604077584748C144.30634865467232 642.2528193385624 267.84418016150306 545.4818117293362 288.3907678332052 436.4482828641012C308.9373555049073 327.4147539988662 218.74608281277386 228.38474071654582 276.3134351295337 163.19946920534636C333.88078744629354 98.0141976941469 491.69444773538214 76.32280647699798 564.7140589536518 123.55897961034441C637.7336701719216 170.7951527436909 622.2339902143754 290.06127253906664 626.8075689772277 389.9331002454094C631.3811477400798 489.80492795175223 623.7872716029897 548.9455011353156 586.667237015343 602.9437526007891 "></path><path d="M617.357240251736 390.3525467724562C621.7402532328026 486.0630483243681 614.4627886014248 542.7394309586164 578.8894221215965 594.4877552796951C543.3160556417683 646.2360796007738 528.2585596410042 622.0502060429151 446.60508114856054 638.7445035136336C364.95160265611685 655.438800984352 218.9452132731119 717.0818220415599 186.95272535786626 674.6203831391439C154.96023744262055 632.1589442367277 273.3506593033333 539.4200619445526 293.0411391553812 434.9295967820358C312.73161900742906 330.439131619519 226.29831601080122 235.53536889062855 281.467028647696 173.06615035906242C336.63574128459084 110.59693182749623 487.8738323949674 89.80934857772854 557.850959812476 135.07734783051887C627.8280872299845 180.3453470833092 612.9742272706694 294.64204522054433 617.357240251736 390.3525467724562C621.7402532328026 486.0630483243681 614.4627886014248 542.7394309586164 578.8894221215965 594.4877552796951 "></path><path d="M607.9069420438225 390.77202381708116C612.0993892431037 482.32119921456194 605.1383361174378 536.5333912994951 571.1116377454283 586.0317884761791C537.0849393734188 635.5301856528631 522.6821171118182 612.3958718149113 444.5787898581765 628.3643302651637C366.47546260453475 644.3327887154162 226.81717710774734 703.2956784223107 196.2156669279471 662.680389037391C165.61415674814685 622.0650996524714 278.85716896274175 533.3583426773472 297.69154099513537 433.4109412175485C316.525913027529 333.4635397577499 233.85057972640664 242.6860275822894 286.6206526834365 182.93286203035655C339.3907256404663 123.17969647842375 484.0532475721309 103.29592119603723 550.9878911888782 146.59574656827147C617.9225348056254 189.8955719405057 603.7144948445414 299.22284841960015 607.9069420438225 390.77202381708116C612.0993892431037 482.32119921456194 605.1383361174378 536.5333912994951 571.1116377454283 586.0317884761791 "></path><path d="M598.4566133183309 391.19147034412777C602.4584947358267 478.5793195871777 595.8138531158729 530.3273211227958 563.3338228516819 577.575791155085C530.853792587491 624.8242611873743 517.1056440650541 602.7415070693294 442.5524680502142 617.9841264991157C367.9992920353744 633.2267459289021 234.68911042480465 689.5095042854833 205.47857798044987 650.74036441806C176.2680455360951 611.9712245506366 284.363648104572 527.2965928925637 302.34191231731137 431.8922551354831C320.32017653005073 336.48791737840247 241.402812924434 249.83665575637212 291.7742462015988 192.7995431840726C342.14567947876367 135.76243061177308 480.23263223171625 116.78246329676779 544.1247920477022 158.11411478844593C608.0169518636883 199.44576628012408 594.4547319008353 303.80362110107785 598.4566133183309 391.19147034412777C602.4584947358267 478.5793195871777 595.8138531158729 530.3273211227958 563.3338228516819 577.575791155085 "></path><path d="M589.0062998516285 391.6109168711746C592.8176154873386 474.8374399597935 586.4893853730969 524.1212509460963 555.5560232167246 569.119793833991C524.6226610603524 614.1183367218855 511.52918627707913 593.0871423237475 440.5261615010411 607.603922733068C369.52313672500316 622.1207031423883 242.56105900065097 675.723330148656 214.7415042917417 638.800339798729C186.92194958283238 601.8773494488021 289.8701425051913 521.2348431077801 306.99229889827643 430.37356905341767C324.11445529136154 339.51229499905526 248.9550613812504 256.98728393045485 296.9278549785502 202.66622433778866C344.90064857585 148.34516474512242 476.4120321500907 130.2690053974983 537.2617081653154 169.63248300862034C598.1113841805402 208.9959606197424 585.1949842159183 308.38439378255555 589.0062998516285 391.6109168711746C592.8176154873386 474.8374399597935 586.4893853730969 524.1212509460963 555.5560232167246 569.119793833991 "></path><path d="M579.555986384926 392.0304091745885C583.1767362388505 471.09560610877656 577.164917630321 517.9152265457642 547.7782235817672 560.663842289264C518.3915295332135 603.4124580327639 505.95272848910406 583.4328233545328 438.499854951868 597.2237647433872C371.0469814146319 611.0147061322416 250.43300757649735 661.9372017881958 224.00443060303354 626.8603609557651C197.57585362956968 591.7835201233345 295.3766369058107 515.1731390993638 311.64268547924155 428.85492874771944C327.9087340526724 342.5367183960751 256.50730983806676 264.13795788090476 302.0814637555016 212.53295126787185C347.6556176729365 160.92794465483894 472.591432068465 143.75559327459604 530.3986242829285 181.150897005162C588.2058164973921 218.54620073572795 575.9352365310012 312.96521224040043 579.555986384926 392.0304091745885C583.1767362388505 471.09560610877656 577.164917630321 517.9152265457642 547.7782235817672 560.663842289264 "></path><path d="M570.1056729182235 392.44984044284615C573.5358569903625 467.3537112226031 567.840449887545 511.7091411102758 540.0004239468099 552.2078297093808C512.1603980060748 592.706518308486 500.376270701129 573.7784433501619 436.47354840269486 586.8435457185501C372.5708261042606 599.9086480869385 258.3049561523437 648.1510123925794 233.26735691432532 614.9203210776452C208.22975767630697 581.6896297627109 300.88313130643 509.1113740557912 316.2930720602066 427.33622740686496C331.7030128139832 345.5610807579388 264.0595582948831 271.2885707961984 307.235072532453 222.39961716279885C350.41058677002286 173.51066352939927 468.7708319868393 157.24212011653754 523.5355404005417 192.6692499665474C578.300248814244 228.0963798165572 566.6754888460844 317.54596966308907 570.1056729182235 392.44984044284615C573.5358569903625 467.3537112226031 567.840449887545 511.7091411102758 540.0004239468099 552.2078297093808 "></path><path d="M560.6553594515209 392.86928696989287C563.8949777418745 463.611831595219 558.515982144769 505.5030709335765 532.2226243118527 543.7518323882869C505.92926647893614 582.0005938429972 494.7998129131539 564.12407860458 434.44724185352163 576.4633419525023C374.09467079388935 588.8026053004246 266.17690472819004 634.3648382557521 242.53028322561715 602.9802964583142C218.88366172304427 571.5957546608763 306.3896257070494 503.0496242710076 320.9434586411717 425.81754132479955C335.49729157529407 348.5854583785915 271.61180675169953 278.43919897028115 312.38868130940443 232.26629831651485C353.1655558671093 186.0933976627486 464.95023190521374 170.7286622172681 516.6724565181548 204.1876181867218C568.3946811310959 237.64657415617557 557.4157411611673 322.12674234456676 560.6553594515209 392.86928696989287C563.8949777418745 463.611831595219 558.515982144769 505.5030709335765 532.2226243118527 543.7518323882869 "></path><path d="M551.2050307260293 393.2887334969396C554.2540832345974 459.8699519678348 549.191499143204 499.2970007568771 524.4448094181062 535.2958350671927C499.6981196930084 571.2946693775084 489.2233398663898 554.469713858998 432.42092004555946 566.0831381864543C375.6185002247291 577.6965625139106 274.04883804524735 620.5786641189248 251.79319427811993 591.0402718389832C229.53755051099245 561.5018795590416 311.89610484887965 496.9878744862241 325.59382996334773 424.29885524273413C339.2915550778158 351.6098359992442 279.1640399497269 285.5898271443639 317.54227482756676 242.1329794702309C355.92050970540663 198.67613179609793 461.1296165647991 184.21520431799865 509.8093573769788 215.70598640689627C558.4890981891588 247.1967684957939 548.1559782174612 326.70751502604446 551.2050307260293 393.2887334969396C554.2540832345974 459.8699519678348 549.191499143204 499.2970007568771 524.4448094181062 535.2958350671927 "></path><path d="M541.7547325181158 393.7081800239864C544.6132192448985 456.12807234045056 539.8670466592172 493.09093058017766 516.6670250419379 526.8398377460987C493.46700342465874 560.5887449120196 483.6468973372039 544.8153491134161 430.3946287551754 555.7029344204063C377.1423601731469 566.5905197273967 281.9208018798828 606.7924899820975 261.0561358482008 579.1002472196523C240.1914698165188 551.408004457207 317.402614508288 490.9261247014406 330.24423180310185 422.7801691606687C343.0858490979157 354.63421361989685 286.7163036653323 292.7404553184466 322.6958988633072 251.99966062394697C358.67549406128205 211.25886592944727 457.3090317419625 197.70174641872921 502.94628875338105 227.22435462707074C548.5835457647997 256.74696283541226 538.8962457913333 331.28828770752216 541.7547325181158 393.7081800239864C544.6132192448985 456.12807234045056 539.8670466592172 493.09093058017766 516.6670250419379 526.8398377460987 "></path><path d="M532.3044037926243 394.12765706861126C534.9723247376214 452.38622323064453 530.5425636576522 486.88489092105647 508.8892101481915 518.3838709425827C487.235856638731 549.8828509641089 478.07042429043975 535.1610148854123 428.3683069472131 545.3227611719367C378.6661896039866 555.4845074584609 289.7927351969401 593.0063463628483 270.31904690070354 567.1602531178994C250.84535860446704 541.3141598729505 322.90909365011834 484.8644054342351 334.89460312527785 421.26151359618143C346.8801126004375 357.65862175812777 294.26853686335966 299.89111401010746 327.84949238146953 261.8663722952411C361.4304478995794 223.84163058037478 453.48841640154774 211.1883190370379 496.08318961220516 238.74275336482333C538.6779628228625 266.29718769260876 529.6364828476271 335.869090906578 532.3044037926243 394.12765706861126C534.9723247376214 452.38622323064453 530.5425636576522 486.88489092105647 508.8892101481915 518.3838709425827 "></path><path d="M522.8540903259218 394.547103595658C525.3314454891333 448.64434360326027 521.2180959148762 480.67882074435715 501.1114105132343 509.92787362148863C481.0047251115923 539.1769264986201 472.4939665024647 525.5066501398304 426.34200039804 534.9425574058887C380.1900342936153 544.3784646719469 297.6646837727864 579.220172226021 279.5819732119954 555.2202284985683C261.49926265120433 531.2202847711159 328.41558805073765 478.8026556494516 339.544989706243 419.742827514116C350.6743913617483 360.68299937878044 301.820785320176 307.0417421841902 333.0031011584209 271.73305344895715C364.1854169966658 236.42436471372412 449.66781631992217 224.67486113776846 489.22010572981833 250.26112158499774C528.7723951397144 275.8473820322271 520.3767351627102 340.4498635880557 522.8540903259218 394.547103595658C525.3314454891333 448.64434360326027 521.2180959148762 480.67882074435715 501.1114105132343 509.92787362148863 "></path><path d="M513.4037768592193 394.9665501227047C515.6905662406454 444.9024639758761 511.8936281721003 474.47275056765784 493.3336108782769 501.47187630039457C474.7735935844536 528.4710020331313 466.9175087144897 515.8522853942485 424.3156938488669 524.5623536398407C381.71387898324406 533.272421885433 305.5366323486328 565.4339980891937 288.8448995232872 543.2802038792374C272.15316669794163 521.1264096692812 333.922082451357 472.7409058646681 344.1953762872081 418.2241414320506C354.46867012305916 363.7073769994331 309.37303377699243 314.1923703582729 338.1567099353723 281.59973460267315C366.94038609375224 249.00709884707345 445.84721623829654 238.16140323849902 482.3570218474314 261.7794898051722C518.8668274565663 285.39757637184545 511.11698747779315 345.0306362695333 513.4037768592193 394.9665501227047C515.6905662406454 444.9024639758761 511.8936281721003 474.47275056765784 493.3336108782769 501.47187630039457 "></path><path d="M503.95344813372765 395.3859966497515C506.0496717333683 441.16058434849197 502.5691451705353 468.2666803909585 485.5557959845305 493.0158789793005C468.5424467985258 517.7650775676425 461.34103566772546 506.1979206486666 422.28937204090465 514.1821498737928C383.2377084140838 522.166379098919 313.4085656656901 551.6478239523663 298.10781057579 531.3401792599064C282.80705548588986 511.03253456744665 339.4285615931873 466.6791560798845 348.8457476093841 416.7054553499852C358.2629336255809 366.7317546200859 316.9252669750197 321.34299853235564 343.31030345353463 291.4664157563892C369.6953399320496 261.5898329804228 442.02660089788185 251.64794533922952 475.4939227062555 273.29785802534667C508.96124451462913 294.9477707114638 501.8572245340871 349.611408951011 503.95344813372765 395.3859966497515C506.0496717333683 441.16058434849197 502.5691451705353 468.2666803909585 485.5557959845305 493.0158789793005 "></path><path d="M494.5031499258142 395.80544317679824C496.4088077436693 437.4187047211077 493.24469268654843 462.0606102142591 477.77801160836225 484.55988165820645C462.3113305301762 507.0591531021537 455.76459313853957 496.54355590308467 420.26308075052054 503.8019461077449C384.7615683625016 511.06033631240507 321.2805295003255 537.861649815539 307.3707521458708 519.4001546405755C293.4609747914162 500.938659465612 344.93507125259566 460.617406295101 353.4961494491382 415.1867692679198C362.05722764568077 369.75613224073857 324.4775306906252 328.49362670643836 348.4639274892751 301.33309691010527C372.450324287925 274.1725671137722 438.20601607504534 265.1344874399601 468.6308540826577 284.81622624552114C499.0556920902701 304.49796505108213 492.59749210795917 354.1921816324887 494.5031499258142 395.80544317679824C496.4088077436693 437.4187047211077 493.24469268654843 462.0606102142591 477.77801160836225 484.55988165820645 "></path><path d="M485.0528212003227 396.2249202214231C486.76791323639213 433.67685561130156 483.92020968498343 455.8545705551379 470.00019671461587 476.1039148546904C456.08018374424836 496.353259154243 450.18812009177543 486.889221675081 418.23675894255837 493.42177285927505C386.28539779334125 499.9543240434692 329.1524628173828 524.0755061962898 316.6336631983736 507.4601605388226C304.1148635793644 490.84481488135543 350.441550394426 454.5556870278956 358.1465207713143 413.6681137034325C365.85149114820257 372.78054037896936 332.0297638886525 335.6442853980992 353.61752100743746 311.1998085813994C375.20527812622237 286.75533176469963 434.3854007346306 278.62106005826877 461.76775494148177 296.33462498327367C489.15010914833294 314.04818990827863 483.3377291642531 358.77298483154453 485.0528212003227 396.2249202214231C486.76791323639213 433.67685561130156 483.92020968498343 455.8545705551379 470.00019671461587 476.1039148546904 "></path><path d="M475.6025229924092 396.6443667484698C477.1270492466932 429.9349759839174 474.59575720099656 449.64850037843854 462.2224123384476 467.64791753359634C449.8490674758987 485.6473346887542 444.6116775625894 477.2348569294991 416.21046765217426 483.04156909322717C387.8092577417591 488.84828125695526 337.02442665201824 510.28933205946237 325.8966047684545 495.5201359194916C314.76878288489075 480.7509397795209 355.94806005383435 448.49393724311204 362.7969226110684 412.14942762136707C369.64578516830244 375.8049179996221 339.582027604258 342.79491357218194 358.7711450431779 321.06648973511545C377.96026248209785 299.33806589804897 430.5648159117941 292.1076021589993 454.90468631788394 307.85299320344814C479.2445567239739 323.59838424789694 474.07799673812514 363.35375751302223 475.6025229924092 396.6443667484698C477.1270492466932 429.9349759839174 474.59575720099656 449.64850037843854 462.2224123384476 467.64791753359634 "></path><path d="M466.15220952570667 397.06381327551657C467.48616999820524 426.1930963565332 465.2712894582206 443.44243020173917 454.4446127034903 459.1919202125023C443.61793594876 474.9414102232654 439.0352197746144 467.5804921839171 414.1841611030011 472.6613653271793C389.33310243138783 477.7422384704414 344.89637522786455 496.50315792263507 335.15953107974633 483.58011130016064C325.42268693162805 470.6570646776862 361.45455445445367 442.4321874583285 367.44730919203346 410.63074153930165C373.44006392961325 378.8292956202748 347.13427606107433 349.94554174626467 363.9247538201293 330.9331708888315C380.71523157918426 311.9208000313983 426.7442158301684 305.5941442597299 448.0416024354971 319.3713614236226C469.33898904082577 333.1485785875153 464.8182490532081 367.9345301944999 466.15220952570667 397.06381327551657C467.48616999820524 426.1930963565332 465.2712894582206 443.44243020173917 454.4446127034903 459.1919202125023 "></path><path d="M456.7018960590042 397.48327506135234C457.8452907497172 422.45123198793806 455.9468217154447 437.2363752838289 446.666813068533 450.7359381501973C437.3868044216213 464.23550101656565 433.4587619866394 457.92614269712425 412.157854553828 462.28117681992035C390.85694712101656 466.6362109427165 352.7683238037109 482.71699904459683 344.4224573910381 471.6401019396187C336.07659097836535 460.5632048346406 366.96104885507305 436.37045293233405 372.0976957729986 409.1120707160253C377.2343426909241 381.85368849971655 354.68652451789075 357.09618517913646 369.0783625970807 340.7998673013366C383.4702006762707 324.50354942353675 422.92361574854283 319.0807016192495 441.1785185531102 330.88974490258613C459.4334213576777 342.6987881859227 455.5585013682911 372.5153181347667 456.7018960590042 397.48327506135234C457.8452907497172 422.45123198793806 455.9468217154447 437.2363752838289 446.666813068533 450.7359381501973 "></path><path d="M447.25158259230165 397.9027215883991C448.2044115012292 418.70935236055385 446.62235397266875 431.03030510712955 438.88901343357566 442.2799408291032C431.1556728944826 453.52957655107684 427.8823041986643 448.27177795154233 410.1315480046548 451.90097305387246C392.3807918106453 455.53016815620254 360.6402723795573 468.9308249077695 353.68538370232994 459.70007732028773C346.73049502510264 450.469329732806 372.46754325569236 430.3087031475505 376.74808235396364 407.5933846339599C381.0286214522349 384.8780661203693 362.2387729747071 364.2468133532192 374.23197137403207 350.66654845505263C386.22516977335704 337.0862835568861 419.1030156669172 332.56724371998007 434.3154346707234 342.40811312276054C449.5278536745296 352.24898252554107 446.2987536833741 377.0960908162444 447.25158259230165 397.9027215883991C448.2044115012292 418.70935236055385 446.62235397266875 431.03030510712955 438.88901343357566 442.2799408291032 "></path><path d="M437.8012691255991 398.3221833742349C438.56353225274114 414.9674879919587 437.2978862298928 424.82425018921924 431.11121379861834 433.82395876679817C424.92454136734386 442.8236673443771 422.30584641068924 438.61742846474954 408.10524145548163 441.5207845466136C393.9046365002741 444.42414062847763 368.5122209554036 455.1446660297312 362.9483100136218 447.7600679597458C357.38439907183994 440.37546988976044 377.9740376563117 424.246968621556 381.3984689349287 406.07471381068353C384.8229002135457 387.9024589998111 369.7910214315235 371.39745678609097 379.38558015098346 360.5332448675577C388.98013887044345 349.6690329490245 415.2824155852916 346.0538010794997 427.4523507883365 353.92649660172407C439.6222859913815 361.7991921239485 437.0390059984571 381.6768787565111 437.8012691255991 398.3221833742349C438.56353225274114 414.9674879919587 437.2978862298928 424.82425018921924 431.11121379861834 433.82395876679817 "></path><path d="M428.3509556588966 398.74164516007073C428.9226530042531 411.22562362336356 427.9734184871169 418.618195271309 423.333414163661 425.3679767044932C418.69340984020516 432.11775813767736 416.7293886227142 428.9630789779567 406.0789349063085 431.1405960393547C395.4284811899028 433.3181131007528 376.38416953125 441.35850715169295 372.2112363249136 435.8200585992039C368.0383031185772 430.28161004671483 383.48053205693105 418.18523409556155 386.0488555158938 404.5560429874072C388.6171789748566 390.9268518792528 377.3432698883399 378.54810021896276 384.5391889279349 370.3999412800628C391.73510796752987 362.2517823411629 411.46181550366595 359.54035843901926 420.58926690594967 365.4448800806876C429.71671830823334 371.3494017223559 427.7792583135401 386.25766669677785 428.3509556588966 398.74164516007073C428.9226530042531 411.22562362336356 427.9734184871169 418.618195271309 423.333414163661 425.3679767044932 "></path><path d="M418.900626933405 399.16109168711745C419.28175849697607 407.48374399597935 418.6489354855519 412.4121250946096 415.55559926991464 416.9119793833991C412.4622630542774 421.41183367218855 411.1529155759501 419.30871423237477 404.0526130983463 420.7603922733068C396.9523106207425 422.2120703142388 384.2561028483073 427.5723330148656 381.47414737741633 423.8800339798729C378.6921919065254 420.1877349448802 388.9870111987613 412.123484310778 390.6992268380698 403.03735690534177C392.41144247737833 393.95122949990554 384.8955030863672 385.6987283930455 389.6927824460972 380.2666224337789C394.49006180582717 374.83451647451227 407.64120016325126 373.0269005397498 413.7261677647737 376.96324830086206C419.8111353662962 380.89959606197425 418.51949536983403 390.83843937825554 418.900626933405 399.16109168711745C419.28175849697607 407.48374399597935 418.6489354855519 412.4121250946096 415.55559926991464 416.9119793833991 "></path><path d="M409.45031346670254 399.5805534729533C409.64087924848803 403.7418796273842 409.32446774277594 406.20607017669937 407.7777996349573 408.45599732109406C406.2311315271387 410.7059244654888 405.5764577879751 409.6543647455819 402.02630654917317 410.38020376604794C398.47615531037127 411.10604278651397 392.1280514241536 413.78617413682736 390.73707368870816 411.940024619331C389.3460959532627 410.0938751018346 394.4935055993807 406.06174978478356 395.34961341903494 401.5186860820654C396.2057212386892 396.97562237934727 392.4477515431836 392.8493718259173 394.8463912230486 390.13331884628394C397.2450309029136 387.41726586665067 403.8206000816256 386.51345789926944 406.86308388238683 388.48163177982553C409.9055676831481 390.4498056603816 409.259747684917 395.4192273185223 409.45031346670254 399.5805534729533C409.64087924848803 403.7418796273842 409.32446774277594 406.20607017669937 407.7777996349573 408.45599732109406 "></path></g></svg>