<svg xmlns="http://www.w3.org/2000/svg" version="1.1" xmlns:xlink="http://www.w3.org/1999/xlink" xmlns:svgjs="http://svgjs.dev/svgjs" viewBox="0 0 800 800"><defs><linearGradient x1="50%" y1="0%" x2="50%" y2="100%" id="uundulate-grad"><stop stop-color="hsl(272, 99%, 54%)" stop-opacity="1" offset="45%"></stop><stop stop-color="hsl(316, 73%, 52%)" stop-opacity="1" offset="100%"></stop></linearGradient></defs><g stroke-width="2" stroke="url(#uundulate-grad)" fill="none"><path d="M706.5999700713666 321.3786972653137C734.140823846282 474.984234722696 727.8578239630359 593.2103594876257 681.186626115779 684.8078090945751C634.5154282685221 776.4052587015246 606.2703209619284 725.9444089718613 482.5782204045338 761.0464553786696C358.88611984713907 796.1485017854782 142.06191562868764 913.9341328357566 87.46454344028547 853.297631847257C32.86717125188335 792.6611308587571 209.12739067221008 632.7826829277847 220.51083390020221 469.9912506338701C231.8942771281944 307.1998183399555 73.67180133131848 180.75084461453457 142.10507093464804 71.89875683646585C210.5383405379776 -36.953330941602815 431.38742400936803 -104.47375829020245 548.9905279961845 -52.49877070085904C666.5936319830012 -0.5237831115156268 679.0591162964512 167.7731598079315 706.5999700713666 321.3786972653137C734.140823846282 474.984234722696 727.8578239630359 593.2103594876257 681.186626115779 684.8078090945751 "></path><path d="M697.582322995221 323.69106877554805C724.3131516591096 472.77879630771326 718.2149458900766 587.5276821089686 672.916430332445 676.4310890804195C627.6179147748132 765.3344960518705 600.2035459184135 716.3577889613148 480.1494483185893 750.4274222385111C360.0953507187651 784.4970555157076 149.64832897732686 898.8184032998015 96.65676185328948 839.9653288109635C43.66519472925211 781.1122543221254 214.74129004898106 625.9361136832406 225.78992612320872 467.9326646920881C236.83856219743643 309.92921570093574 83.26968862988036 187.19932943802712 149.69021500958257 81.54877365343106C216.11074138928478 -24.101782131165066 430.4642635821049 -89.63631455774703 544.6084527457798 -39.19000307397255C658.7526419094546 11.256308409801932 670.8514943313327 174.60334124338294 697.582322995221 323.69106877554805C724.3131516591096 472.77879630771326 718.2149458900766 587.5276821089686 672.916430332445 676.4310890804195 "></path><path d="M688.5646759190757 326.00350132093865C714.4854794719373 470.5734189278867 708.5720678171174 581.8450657654677 664.6462345491109 668.0544301014199C620.7204012811044 754.2637944373723 594.1367708748986 706.7712299859245 477.7206762326448 739.8084501335088C361.3045815903911 772.8456702810934 157.23474232596612 883.7027347990024 105.8489802662935 826.6330868098262C54.46321820662092 769.5634388206499 220.35518942575197 619.0896054738527 231.06901834621522 465.8741397854624C241.78284726667835 312.6586740970721 92.86757592844219 193.64787529667592 157.2753590845171 91.19885150555245C221.68314224059196 -11.250172285571011 429.54110315484184 -74.79880979013535 540.226377495375 -25.881174411929806C650.9116518359082 23.03646096627574 662.6438723662142 181.43358371399063 688.5646759190757 326.00350132093865C714.4854794719373 470.5734189278867 708.5720678171174 581.8450657654677 664.6462345491109 668.0544301014199 "></path><path d="M679.5470288429302 328.315872831173C704.657807284765 468.36798051290384 698.9291897441582 576.1623883868104 656.3760387657768 659.6777100872644C613.8228877873955 743.1930317877182 588.0699958313837 697.184609975378 475.2919041467003 729.1894169933505C362.5138124620171 761.1942240113231 164.82115567460534 868.5870052630473 115.04119867929751 813.3007837735329C65.26124168398968 758.0145622840184 225.9690888025229 612.2430362293084 236.3481105692216 463.8155538436804C246.72713233592037 315.3880714580523 102.46546322700408 200.09636012016847 164.86050315945164 100.84886832251766C227.2555430918992 1.6013765248667369 428.6179427275787 -59.96136605767998 535.8443022449702 -12.572406785043313C643.0706617623617 34.8165524875933 654.4362504010955 188.26376514944218 679.5470288429302 328.315872831173C704.657807284765 468.36798051290384 698.9291897441582 576.1623883868104 656.3760387657768 659.6777100872644 "></path><path d="M670.5293817667848 330.6283053765636C694.8301350975926 466.16260313307725 689.2863116711989 570.4797720433095 648.1058429824428 651.3010511082649C606.9253742936869 732.1223301732202 582.0032207878687 687.5980509999877 472.8631320607559 718.5704448883482C363.723043333643 749.5428387767085 172.4075690232446 853.4713367622485 124.23341709230152 799.9685417723958C76.05926516135844 746.4657467825432 231.58298817929386 605.3965280199204 241.6272027922281 461.75702893705454C251.67141740516234 318.11752985418866 112.06335052556597 206.54490597881727 172.44564723438612 110.498946174639C232.82794394320638 14.452986370460735 427.69478230031564 -45.123861290068305 531.4622269945655 0.7364218769993727C635.2296716888153 46.59670504406711 646.228628435977 195.09400762004975 670.5293817667848 330.6283053765636C694.8301350975926 466.16260313307725 689.2863116711989 570.4797720433095 648.1058429824428 651.3010511082649 "></path><path d="M661.5117346906394 332.94067688679786C685.0024629104203 463.95716471809465 679.6434335982397 564.7970946646523 639.8356471991087 642.9243310941091C600.027860799978 721.0515675235661 575.9364457443539 678.0114309894412 470.4343599748115 707.9514117481899C364.932274205269 737.8913925069382 179.99398237188382 838.3556072262932 133.42563550530554 786.6362387361023C86.85728863872725 734.9168702459115 237.19688755606478 598.5499587753761 246.90629501523455 459.69844299527244C256.6157024744043 320.8469272151689 121.6612378241278 212.99339080230982 180.03079130932065 120.14896299160421C238.40034479451356 27.30453518089854 426.7716218730525 -30.286417557612936 527.0801517441606 14.045189503885865C627.3886816152689 58.376796565384666 638.0210064708585 201.9241890555013 661.5117346906394 332.94067688679786C685.0024629104203 463.95716471809465 679.6434335982397 564.7970946646523 639.8356471991087 642.9243310941091 "></path><path d="M652.494087614494 335.2530483970322C675.1747907232478 461.7517263031118 670.0005555252806 559.1144172859952 631.5654514157748 634.5476110799534C593.1303473062692 709.9808048739119 569.8696707008389 668.4248109788948 468.005587888867 697.3323786080313C366.1415050768949 726.2399462371677 187.5803957205231 823.2398776903381 142.61785391830955 773.3039356998088C97.65531211609601 723.3679937092797 242.8107869328357 591.7033895308319 252.185387238241 457.63985705349046C261.55998754364634 323.5763245761491 131.25912512268968 219.44187562580237 187.61593538425518 129.79897980856936C243.97274564582074 40.15608399133629 425.8484614457893 -15.448973825157509 522.6980764937559 27.353957130772358C619.5476915417224 70.15688808670222 629.81338450574 208.75437049095274 652.494087614494 335.2530483970322C675.1747907232478 461.7517263031118 670.0005555252806 559.1144172859952 631.5654514157748 634.5476110799534 "></path><path d="M643.4764405383485 337.5654809424228C665.3471185360755 459.5463489232852 660.3576774523212 553.4318009424942 623.2952556324408 626.170952100954C586.2328338125603 698.9101032594139 563.8028956573241 658.8382520035047 465.5768158029225 686.7134065030291C367.3507359485209 714.5885610025534 195.16680906916235 808.1242091895392 151.81007233131356 759.9716936986717C108.45333559346483 711.8191782078044 248.4246863096066 584.856881321444 257.4644794612475 455.5813321468647C266.5042726128883 326.30578297228544 140.8570124212515 225.89042148445117 195.2010794591897 139.44905766069076C249.54514649712792 53.00769383693029 424.92530101852617 -0.6114690575458894 518.3160012433511 40.6627857928151C611.7067014681759 81.93704064317603 621.6057625406215 215.58461296156042 643.4764405383485 337.5654809424228C665.3471185360755 459.5463489232852 660.3576774523212 553.4318009424942 623.2952556324408 626.170952100954 "></path><path d="M634.4588087209921 339.8778524526572C655.5194616076922 457.3409105083024 650.714814638151 547.749123563837 615.0250751078959 617.7942320867983C579.3353355776405 687.8393406097596 557.7361358725982 649.2516319929581 463.14805897576707 676.0943733628706C368.55998207893595 702.9371147327829 202.75323767659063 793.0084796535839 161.00230600310664 746.6393906623784C119.25137432962265 700.2703016711728 254.03860094516665 578.0103120768998 262.743586943043 453.52274620508274C271.44857294091935 329.03518033326554 150.45491497860246 232.33890630794372 202.7862387929133 149.0990744776559C255.11756260722416 65.85924264736809 424.0021558500521 14.225974674909537 513.9339412517354 53.971553419701536C603.8657266534186 93.71713216449359 613.3981558342921 222.41479439701197 634.4588087209921 339.8778524526572C655.5194616076922 457.3409105083024 650.714814638151 547.749123563837 615.0250751078959 617.7942320867983 "></path><path d="M625.4411463860577 342.19022396289154C645.6917741617308 455.13547209331966 641.0719213064028 542.0664461851798 606.7548640657727 609.4175120726426C572.4378068251426 676.7685779601054 551.6693455702944 639.6650119824118 460.7192716310335 665.475340222712C369.7691976917728 691.2856684630124 210.33963576644078 777.8927501176288 170.1945091573216 733.3070876260849C130.04938254820235 688.7214251345412 259.6524850631485 571.1637428323555 268.0226639072604 451.46416026330064C276.39284275137226 331.76457769424576 160.05278701837528 238.78739113143627 210.37136760905878 158.74909129462105C260.6899481997423 78.71079145780584 423.07898016399986 29.063418407364964 509.55185074254155 67.28032104658803C596.024721321083 105.4972236858111 605.1905186103845 229.2449758324634 625.4411463860577 342.19022396289154C645.6917741617308 455.13547209331966 641.0719213064028 542.0664461851798 606.7548640657727 609.4175120726426 "></path><path d="M616.4235145687013 344.502625990704C635.8641172333475 452.93006419591495 631.4290584922326 536.3837993241007 598.4846835412277 601.040822576065C565.5403085902228 665.6978458280292 545.6025857855684 630.0784224894434 458.2905148038782 654.8563376001316C370.97844382218784 679.6342527108201 217.9260643738691 762.7770510992518 179.38674282911467 719.9748151073696C140.84742128436022 677.1725791154876 265.2663996987085 564.3172041053895 273.30177138905594 449.4056048390968C281.3371430794033 334.4940055728041 169.65068957572618 245.23590647250694 217.95652694278238 168.39913862916433C266.2623643098385 91.56237078582171 422.1558349955259 43.90089265739846 505.1697907509258 80.58911919105265C588.1837465063256 117.27734572470678 596.9829119040551 236.07518778549297 616.4235145687013 344.502625990704C635.8641172333475 452.93006419591495 631.4290584922326 536.3837993241007 598.4846835412277 601.040822576065 "></path><path d="M607.4058674925559 346.8150280185164C626.0364450461751 450.72465629851035 621.7861804192734 530.7011524630216 590.2144877578937 592.6641330794873C558.642795096514 654.6271136959532 539.5358107420536 620.4918329964751 455.8617427179337 644.2373349775513C372.18767469381373 667.9828369586277 225.51247772250838 747.6613520808748 188.57896124211868 706.6425425886544C151.64544476172898 665.6237330964341 270.88029907547946 557.4706653784233 278.5808636120624 447.3470494148928C286.2814281486453 337.2234334513623 179.24857687428806 251.68442181357761 225.5416710177169 178.0491859637076C271.8347651611457 104.41395011383764 421.23267456826284 58.73836690743201 500.787715500521 93.89791733551726C580.3427564327792 129.05746776360246 588.7752899389366 242.90539973852253 607.4058674925559 346.8150280185164C626.0364450461751 450.72465629851035 621.7861804192734 530.7011524630216 590.2144877578937 592.6641330794873 "></path><path d="M598.3882051576213 349.12739952875074C616.2087576002136 448.5192178835275 612.1432870875251 525.0184750843644 581.9442767157706 584.2874130653317C551.7452663440162 643.556351046299 533.4690204397496 610.9052129859285 453.43295537320023 633.6183018373928C373.3968903066507 656.3313906888571 233.09887581235853 732.5456225449196 197.77116439633363 693.3102395523609C162.44345298030873 654.0748565598024 276.4941831934613 550.6240961338791 283.85994057627977 445.2884634731108C291.2256979590982 339.95283081234254 188.84644891406083 258.13290663707016 233.12679983386232 187.69920278067275C277.4071507536638 117.26549892427539 420.3094988822106 73.57581063988738 496.40562499132716 107.2066849624037C572.5017511004437 140.83755928492002 580.567652715029 249.73558117397403 598.3882051576213 349.12739952875074C616.2087576002136 448.5192178835275 612.1432870875251 525.0184750843644 581.9442767157706 584.2874130653317 "></path><path d="M589.3705733402651 351.4398015565632C606.3811006718304 446.3138099861228 602.5004242733548 519.3358282232853 573.6740961912255 575.9107235687541C544.8477681090964 632.4856189142229 527.4022606550238 601.3186234929601 451.0041985460448 622.9992992148125C374.60613643706574 644.6799749366647 240.68530441978686 717.4299235265426 206.9633980681267 679.9779670336458C173.24149171646656 642.5260105407489 282.1080978290213 543.777557406913 289.1390480580753 443.22990804890696C296.16999828712926 342.6822586909009 198.44435147141178 264.58142197814084 240.71195916758592 197.34925011521608C282.97956686376006 130.11707825229126 419.3863537137365 88.41328488992093 492.0235649997114 120.51548310686832C564.6607762856863 152.6176813238157 572.3600460086996 256.56579312700364 589.3705733402651 351.4398015565632C606.3811006718304 446.3138099861228 602.5004242733548 519.3358282232853 573.6740961912255 575.9107235687541 "></path><path d="M580.3529110053305 353.7521730667976C596.553413225869 444.1083715711401 592.8575309416067 513.6531508446283 565.4038851491025 567.5340035545985C537.9502393565986 621.4148562645687 521.3354703527198 591.7320034824137 448.5754112013112 612.380266074654C375.8153520499027 633.0285286668943 248.271702509637 702.3141939905875 216.15560122234166 666.6456639973524C184.03949993504625 630.9771340041173 287.7219819470032 536.9309881623687 294.41812502229266 441.17132210712487C301.11426809758217 345.411656051881 208.0422235111846 271.0299068016334 248.2970879837314 206.99926693218123C288.5519524562782 142.96862706272907 418.4631780276843 103.2507286223763 487.64147449051757 133.8242507337548C556.8197709533508 164.39777284513326 564.152408784792 263.3959745624551 580.3529110053305 353.7521730667976C596.553413225869 444.1083715711401 592.8575309416067 513.6531508446283 565.4038851491025 567.5340035545985 "></path><path d="M571.3352791879742 356.06457509461006C586.7257562974858 441.90296367373537 583.2146681274364 507.9705039835492 557.1337046245576 559.1573140580208C531.0527411216788 610.3441241324927 515.268710567994 582.1454139894454 446.1466543741558 601.7612634520735C377.02459818031764 621.3771129147019 255.85813111706534 687.1984949722104 225.34783489413473 653.3133914786371C194.83753867120413 619.4282879850637 293.3358965825632 530.0844494354026 299.6972325040882 439.112766682921C306.0585684256132 348.1410839304392 217.6401260685355 277.47842214270406 255.88224731745498 216.6493142667245C294.1243685663744 155.82020639074494 417.5400328592102 118.08820287240985 483.25941449890183 147.13304887821943C548.9787961385935 176.17789488402894 555.9448020784625 270.22618651548464 571.3352791879742 356.06457509461006C586.7257562974858 441.90296367373537 583.2146681274364 507.9705039835492 557.1337046245576 559.1573140580208 "></path><path d="M562.3176168530397 358.3769466048444C576.8980688515244 439.69752525875265 573.571774795688 502.28782660489196 548.8634935824344 550.7805940438652C524.1552123691808 599.2733614828385 509.20192026569 572.5587939788988 443.7178670294222 591.1422303119152C378.2338137931545 609.7256666449314 263.4445292069155 672.0827654362553 234.5400380483497 639.9810884423437C205.63554688978383 607.879411448432 298.94978070054503 523.2378801908585 304.9763094683056 437.0541807411389C311.00283823606617 350.87048129141954 227.23799810830832 283.9269069661966 263.46737613360045 226.29933108368965C299.69675415889253 168.6717552011827 416.6168571731581 132.92564660486528 478.877323989708 160.44181650510586C541.137790806258 187.9579864053465 547.737164854555 277.05636795093614 562.3176168530397 358.3769466048444C576.8980688515244 439.69752525875265 573.571774795688 502.28782660489196 548.8634935824344 550.7805940438652 "></path><path d="M553.2999697768942 360.689379150235C567.070396664352 437.49214787892606 563.928896722729 496.605210261391 540.5932977991004 542.4039350648657C517.257698875472 588.2026598683404 503.1351452221752 562.9722350035088 441.28909494347783 580.5232582069129C379.4430446647805 598.0742814103172 271.03094255555476 656.9670969354564 243.7322564613537 626.6488464412066C216.43357036715258 596.3305959469567 304.563680077316 516.3913719814705 310.25540169131204 434.9956558345132C315.94712330530814 353.5999396875559 236.8358854068702 290.3754528248454 271.05252020853493 235.94940893581105C305.2691550101997 181.5233650467767 415.69369674589495 147.7631513724769 474.4952487393032 173.7506451671486C533.2968007327115 199.7381389618203 539.5295428894365 283.8866104215439 553.2999697768942 360.689379150235C567.070396664352 437.49214787892606 563.928896722729 496.605210261391 540.5932977991004 542.4039350648657 "></path><path d="M544.2823379595379 363.00175066046927C557.2427397359686 435.28670946394334 554.2860339085587 490.9225328827338 532.3231172745554 534.02721505071C510.3602006405522 577.1318972186862 497.06838543744925 553.3856149929622 438.8603381163224 569.9042250667544C380.65229079519554 586.4228351405467 278.61737116298303 641.8513673995012 252.92449013314678 613.3165434049131C227.23160910331046 584.781719410325 310.177594712876 509.5448027369264 315.5345091731076 432.9370698927312C320.8914236333392 356.329337048536 246.4337879642211 296.82393764833796 278.6376795422585 245.59942575277626C310.841571120296 194.3749138572145 414.770551577421 162.60059510493232 470.11318874768745 187.0594127940351C525.4558259179541 211.51823048313787 531.321936183107 290.7167918569953 544.2823379595379 363.00175066046927C557.2427397359686 435.28670946394334 554.2860339085587 490.9225328827338 532.3231172745554 534.02721505071 "></path><path d="M535.2646756246033 365.31413742949275C547.4150522900072 433.08128630774956 544.6431405768103 485.2398707628656 524.0529062324324 525.6505102953433C503.4626718880544 566.061149827821 491.0015951351453 543.7990102412048 436.43155077158895 559.285207185385C381.8615064080324 574.7714041295652 286.20376925283324 626.7356531223352 262.1166932873617 599.9842556274089C238.02961732189016 573.2328581324825 315.79147883085784 502.69824875117115 320.813586137325 430.87849920973827C325.83569344379214 359.05874966830527 256.0316600039939 303.2724377306196 286.222808358404 255.24945782853047C316.4139567128141 207.2264779264413 413.84737589136876 177.43805409617676 465.7310982384937 200.36819567971065C517.6148205856186 223.2983372632445 523.1142989591995 297.5469885512358 535.2646756246033 365.31413742949275C547.4150522900072 433.08128630774956 544.6431405768103 485.2398707628656 524.0529062324324 525.6505102953433 "></path><path d="M526.247043807247 367.6265241985161C537.587395361624 430.8758631515559 535.0002777626403 479.5572086429976 515.7827257078874 517.2738055399767C496.5651736531346 554.990402436956 484.93483535041946 534.2124054894474 434.0027939444335 548.6661893040157C383.07075253844744 563.1199731185839 293.7901978602615 611.619938845169 271.3089269591548 586.6519678499044C248.82765605804803 561.6839968546399 321.4053934664179 495.8516947654159 326.0926936191205 428.81992852674523C330.7799937718232 361.78816228807455 265.6295625613448 309.7209378129012 293.8079676921276 264.8994899042847C321.98637282291037 220.07804199566812 412.92423072289466 192.27551308742125 461.34903824687797 213.67697856538615C509.77384577086127 235.0784440433511 514.90669225287 304.37718524547637 526.247043807247 367.6265241985161C537.587395361624 430.8758631515559 535.0002777626403 479.5572086429976 515.7827257078874 517.2738055399767 "></path><path d="M517.2293814723125 369.9389262263286C527.7597079156625 428.6704552541512 525.3573844308919 473.8745617819185 507.51251466576434 508.89711604339914C489.6676449006367 543.9196703048798 478.8680450481155 524.6258159964791 431.57400659969994 538.0471866814353C384.2799681512844 551.4685573663915 301.3765959501117 596.504239826792 280.50113011336975 573.3196953311892C259.62566427662773 550.1351508355864 327.01927758439973 489.00515603844997 331.3717705833379 426.76137310254137C335.7242635822761 364.5175901666328 275.22743460111764 316.16945315397186 301.39309650827306 274.54953723882795C327.5587584154285 232.92962132368405 412.00105503684244 207.1129873374548 456.9669477376841 226.98577670985077C501.9328404385258 246.8585660822468 506.69905502896245 311.207397198506 517.2293814723125 369.9389262263286C527.7597079156625 428.6704552541512 525.3573844308919 473.8745617819185 507.51251466576434 508.89711604339914 "></path><path d="M508.211734396167 372.251312995352C517.9320357284902 426.4650320979574 515.7145063579327 468.19189966205033 499.24231888243025 500.5204112880325C482.7701314069278 532.8489229140146 472.8012700046006 515.0392112447216 429.1452345137555 527.4281688000658C385.4891990229103 539.81712635541 308.963009298751 581.3885255496259 289.6933485263737 559.9874075536848C270.4236877539965 538.5862895577438 332.63317696117065 482.15860205269473 336.6508628063444 424.70280241954833C340.66854865151805 367.24700278640205 284.8253218996795 322.61795323625347 308.9782405832076 284.19956931458216C333.13115926673566 245.78118539291086 411.07789460957935 221.95044632869923 452.5848724872793 240.29455959552632C494.0918503649792 258.6386728623534 498.49143306384394 318.0375938927465 508.211734396167 372.251312995352C517.9320357284902 426.4650320979574 515.7145063579327 468.19189966205033 499.24231888243025 500.5204112880325 "></path><path d="M499.1941178375997 374.5637302819535C508.1043940588959 424.2596394593419 506.0716588025516 462.5092680597603 490.9721536166744 492.143737050244C475.8726484307972 521.7782060407276 466.73452547866384 505.4526370105424 426.7164929453892 516.8091814362745C386.6984604121144 528.1657258620066 316.5494531649683 566.272841790038 298.88559745695585 546.6551502937587C281.22174174894343 527.0374587974793 338.24710685551975 475.3120785845176 341.92998554692895 422.64426225413354C345.61286423833815 369.9764459237494 294.4232397158195 329.0664838361132 316.56341517572025 293.8496319079145C338.70359063562097 258.6327799797158 410.1547646998944 236.78793583752184 448.20282775445264 253.60337299878C486.2508908090109 270.41881016003816 490.28384161630356 324.8678211045651 499.1941178375997 374.5637302819535C508.1043940588959 424.2596394593419 506.0716588025516 462.5092680597603 490.9721536166744 492.143737050244 "></path><path d="M490.1764402438762 376.87610179218785C498.27669135414544 422.0542010443591 496.4287502120143 456.8265906811032 482.7019273157622 483.7670170360883C468.9751044195102 510.7074433910734 460.6677199175708 495.86601699999596 424.28769034186655 506.19014829611604C387.9076607661623 516.5142795922362 324.13583599602947 551.1571122540828 308.07778535238174 533.3228472574652C292.01973470873406 515.4885822608477 343.86097571471254 468.46550933997344 347.20904725235727 420.5856763123515C350.55711879000205 372.70584328472955 304.02109649680324 335.51496865960576 324.14852873307666 303.49964872487965C344.27596096935 271.4843287901536 409.2315737550531 251.6253795699772 443.8207219864697 266.91214062566644C478.40987021788635 282.1989016813557 482.07618913360693 331.6980025400166 490.1764402438762 376.87610179218785C498.27669135414544 422.0542010443591 496.4287502120143 456.8265906811032 482.7019273157622 483.7670170360883 "></path><path d="M481.15883894409797 379.18845804363315C488.4490649433403 419.84874737058726 486.78591791542215 451.1438980436569 474.4317773087953 475.39028176314355C462.07763670216855 499.6366654826302 454.6009906504231 486.27938173066036 421.85896403228924 495.57109989716855C389.11693741415536 504.8628180636766 331.72229512103587 536.0413674593385 317.27004954175294 519.9905289623828C302.81780396247007 503.939690465427 349.47492086785064 461.6189248366402 352.4881852517309 418.5270751117804C355.5014496356112 375.4352253869207 313.61902957173226 341.96343822430924 331.7337185843783 313.1496502830558C349.8484075970244 284.3358623418023 408.3084591041572 266.4628080436436 439.4386925124321 280.22089299376387C470.5689259207071 293.9789779438842 473.8686129448556 338.52816871667903 481.15883894409797 379.18845804363315C488.4490649433403 419.84874737058726 486.78591791542215 451.1438980436569 474.4317773087953 475.39028176314355 "></path><path d="M472.14116135037443 381.50090584781276C478.62136223858977 417.6433852495498 477.1430093248848 445.461296958945 466.1615510078832 467.01363804293305C455.18009269088157 488.5659791269212 448.5341850893301 476.69283801405925 419.43016142876667 484.9521430509553C390.32613776820324 493.2114480878515 339.308677952097 520.9257142173287 326.4622374371788 506.65830222003467C313.6157969222607 492.3908902227406 355.0887897270435 454.7724318860413 357.7672469571593 416.4685654639437C360.44570418727506 378.1646990418461 323.216886352716 348.4119993417471 339.31883214173473 322.79974339396625C355.42077793075345 297.18748744618534 407.38526815931596 281.30032807004426 435.0565867444492 293.5297369145957C462.72790532958254 305.75914575914703 465.660960462159 345.3584264460758 472.14116135037443 381.50090584781276C478.62136223858977 417.6433852495498 477.1430093248848 445.461296958945 466.1615510078832 467.01363804293305 "></path><path d="M463.12351427422897 383.81326209925805C468.79369005141746 415.43793157577795 467.5001312519256 439.7786043214988 457.89135522454916 458.63690276998835C448.28257919717277 477.495201218478 442.4674100458152 467.1062027447237 417.0013893428222 474.33309465200784C391.5353686398292 481.55998655929193 346.8950913007362 505.8099694225846 335.65445585018284 493.3259839249522C324.41382039962946 480.84199842731994 360.7026891038144 447.92584738270796 363.0463391801657 414.4099642633726C365.389989256517 380.8940811440373 332.8147736512779 354.8604689064506 346.90397621666926 332.44974495214234C360.9931787820606 310.0390209978341 406.4621077320528 296.1377565437106 430.67451149404445 306.8384892826931C454.8869152560361 317.5392220216755 457.4533384970405 352.18859262273816 463.12351427422897 383.81326209925805C468.79369005141746 415.43793157577795 467.5001312519256 439.7786043214988 457.89135522454916 458.63690276998835 "></path><path d="M454.1058671980835 386.12566412707054C458.9660178642451 413.23252367837324 457.85725317896635 434.0959574604197 449.6211594412151 450.2602132734108C441.3850657034639 466.4244690864018 436.4006350023003 457.51961325175535 414.5726172568777 463.71409202942743C392.74459951145514 469.9085708070995 354.4815046493755 490.6942704042075 344.84667426318686 479.9937114062369C335.2118438769983 469.29315240826645 366.3165884805853 441.0793086557419 368.32543140317216 412.3514088391687C370.33427432575905 383.62350902259556 342.41266094983973 361.30898424752127 354.4891202916038 342.0997922866856C366.56557963336786 322.89060032584996 405.5389473047897 310.9752307937442 426.29243624363966 320.14728742715766C447.0459251824896 329.3193440605712 449.24571653192197 359.0188045757678 454.1058671980835 386.12566412707054C458.9660178642451 413.23252367837324 457.85725317896635 434.0959574604197 449.6211594412151 450.2602132734108 "></path><path d="M445.0882201219381 388.43803563730484C449.1383456770727 411.0270852633905 448.21437510600714 428.41328008176254 441.3509636578811 441.8834932592551C434.4875522097551 455.35370643674764 430.3338599587854 447.9329932412089 412.1438451709333 453.09505888926896C393.95383038308114 458.25712453732905 362.0679179980147 475.57854086825233 354.03889267619087 466.66140836994356C346.00986735436703 457.7442758716348 371.93048785735624 434.23273941119766 373.60452362617866 410.2928228973867C375.278559395001 386.3529063835757 352.0105482484016 367.7574690710138 362.07426436653833 351.74980910365076C372.13798048467504 335.7421491362877 404.61578687752655 325.81267452619954 421.91036099323486 333.45605505404416C439.2049351089432 341.09943558188877 441.03809456680347 365.84898601121927 445.0882201219381 388.43803563730484C449.1383456770727 411.0270852633905 448.21437510600714 428.41328008176254 441.3509636578811 441.8834932592551 "></path><path d="M436.07058830458175 390.7504376651173C439.3106887486894 408.8216773659858 438.57151229183694 422.73063322068344 433.0807831333361 433.50680376267746C427.5900539748353 444.28297430467154 424.2671001740596 438.34640374824056 409.7150883437779 442.4760562666886C395.16307651349615 446.6057087851367 369.65434660544304 460.4628418498753 363.23112634798395 453.3291358512283C356.80790609052485 446.19542985258124 377.5444024929163 427.3862006842316 378.88363110797417 408.2342674731828C380.22285972303206 389.082334262134 361.60845080575257 374.2059844120845 369.6594237002619 361.39985643819404C377.7103965947713 348.59372846430364 403.6926417090525 340.6501487762331 417.5283010016191 346.7648531985088C431.3639602941858 352.87955762078445 432.830487860474 372.67919796424883 436.07058830458175 390.7504376651173C439.3106887486894 408.8216773659858 438.57151229183694 422.73063322068344 433.0807831333361 433.50680376267746 "></path><path d="M427.0529412284363 393.06282443414074C429.48301656151705 406.6162542097921 428.92863421887773 417.04797110081535 424.8105873500021 425.13009900731083C420.69254048112646 433.2122269138064 418.2003251305447 428.75979899648314 407.2863162578334 431.8570383853192C396.3723073851221 434.95427777415523 377.24075995408225 445.3471275727092 372.42334476098796 439.9968480737239C367.60592956789367 434.6465685747387 383.1583018696872 420.5396466984764 384.1627233309806 406.1756967901898C385.16714479227403 391.8117468819032 371.2063381043144 380.6544844943661 377.2445677751964 371.0498885139483C383.28279744607846 361.44529253353045 402.76948128178935 355.4876077674775 413.14622575121433 360.07363608418433C423.52297022063937 364.6596644008911 424.6228658953555 379.5093946584893 427.0529412284363 393.06282443414074C429.48301656151705 406.6162542097921 428.92863421887773 417.04797110081535 424.8105873500021 425.13009900731083 "></path><path d="M418.0352941522909 395.37521120316416C419.65534437434474 404.4108310535984 419.28575614591847 411.3653089809472 416.54039156666806 416.7533942519442C413.79502698741766 422.14147952294127 412.1335500870298 419.1731942447258 404.85754417188895 421.23802050394977C397.58153825674805 423.3028467631738 384.8271733027215 430.2314132955431 381.615563173992 426.66456029621963C378.4039530452624 423.0977072968961 388.7722012464581 413.69309271272124 389.44181555398706 404.11712610719684C390.11142986151606 394.5411595016725 380.8042254028763 387.1029845766477 384.82971185013093 380.6999205897025C388.85519829738564 374.29685660275726 401.84632085452625 370.325066758722 408.7641505008096 373.3824189698598C415.6819801470929 376.4397711809977 416.415243930237 386.3395913527299 418.0352941522909 395.37521120316416C419.65534437434474 404.4108310535984 419.28575614591847 411.3653089809472 416.54039156666806 416.7533942519442 "></path><path d="M409.0176470761454 397.6876132309766C409.82767218717237 402.2054231561937 409.6428780729592 405.68266211986816 408.27019578333403 408.37670475536663C406.89751349370886 411.07074739086517 406.0667750435149 409.5866047517574 402.42877208594444 410.6190178813694C398.79076912837405 411.6514310109814 392.41358665136073 415.1157142771661 390.807781586996 413.33228777750435C389.20197652263124 411.5488612778426 394.3861006232291 406.8465539857552 394.72090777699356 402.058570682993C395.05571493075803 397.2705873802308 390.4021127014381 393.5514999177184 392.41485592506547 390.3499679242458C394.4275991486928 387.1484359307732 400.9231604272631 385.1625410087555 404.3820752504048 386.69121711432444C407.84099007354644 388.2198932198934 408.2076219651185 393.1698033057595 409.0176470761454 397.6876132309766C409.82767218717237 402.2054231561937 409.6428780729592 405.68266211986816 408.27019578333403 408.37670475536663 "></path></g></svg>